<?xml version="1.0" standalone="no"?>
<!DOCTYPE svg PUBLIC "-//W3C//DTD SVG 20010904//EN"
 "http://www.w3.org/TR/2001/REC-SVG-20010904/DTD/svg10.dtd">
<svg version="1.0" xmlns="http://www.w3.org/2000/svg"
 width="4555.000000pt" height="1625.000000pt" viewBox="0 0 4555.000000 1625.000000"
 preserveAspectRatio="xMidYMid meet">

<g transform="translate(0.000000,1625.000000) scale(0.100000,-0.100000)"
fill="#000000" stroke="none">
<path d="M20680 15135 c0 -13 16 -15 113 -13 66 2 112 7 112 13 0 6 -46 11
-112 13 -97 2 -113 0 -113 -13z"/>
<path d="M19795 15079 c-11 -17 1 -21 36 -14 23 5 28 10 18 16 -19 12 -46 11
-54 -2z"/>
<path d="M21683 15073 c9 -2 23 -2 30 0 6 3 -1 5 -18 5 -16 0 -22 -2 -12 -5z"/>
<path d="M22086 15021 c-7 -10 33 -23 46 -15 5 3 6 10 3 15 -8 12 -42 12 -49
0z"/>
<path d="M20420 15014 c-114 -19 -272 -36 -415 -44 -131 -7 -182 -14 -223 -30
-35 -13 -95 -24 -170 -30 -70 -5 -139 -17 -172 -28 -30 -11 -98 -25 -150 -31
-53 -6 -116 -17 -140 -26 -25 -9 -85 -23 -134 -31 -48 -9 -105 -24 -125 -34
-20 -10 -58 -22 -86 -26 -27 -3 -68 -17 -90 -30 -22 -12 -61 -26 -88 -29 -26
-4 -58 -16 -71 -26 -14 -11 -51 -24 -83 -30 -31 -6 -74 -19 -94 -29 -20 -11
-58 -24 -85 -31 -27 -6 -64 -20 -82 -30 -18 -11 -53 -24 -77 -30 -25 -6 -54
-20 -66 -30 -12 -11 -40 -24 -63 -30 -22 -6 -53 -22 -69 -35 -16 -13 -36 -24
-45 -24 -9 0 -44 -13 -77 -29 -33 -16 -76 -36 -95 -45 -61 -29 -94 -46 -120
-61 -14 -8 -45 -24 -70 -36 -25 -12 -58 -32 -73 -45 -16 -13 -34 -24 -41 -24
-7 0 -23 -11 -35 -24 -13 -13 -35 -27 -49 -31 -24 -6 -66 -28 -137 -73 -11 -7
-33 -20 -48 -30 -16 -9 -45 -29 -64 -44 -20 -16 -39 -28 -43 -28 -5 0 -27 -16
-50 -35 -23 -19 -46 -35 -52 -35 -6 0 -24 -12 -42 -26 -17 -14 -74 -58 -127
-98 -158 -118 -169 -126 -304 -241 -137 -117 -485 -463 -545 -541 -19 -25 -51
-62 -70 -84 -104 -113 -145 -162 -171 -201 -64 -96 -118 -171 -164 -227 -17
-20 -38 -54 -48 -74 -9 -21 -22 -38 -27 -38 -6 0 -20 -20 -31 -45 -11 -24 -24
-47 -30 -51 -6 -3 -23 -34 -39 -69 -15 -34 -35 -65 -43 -68 -9 -3 -21 -25 -27
-49 -6 -24 -21 -52 -34 -63 -12 -11 -30 -41 -40 -67 -9 -25 -23 -49 -30 -51
-8 -3 -22 -30 -31 -59 -10 -29 -26 -62 -35 -73 -10 -11 -24 -40 -30 -65 -7
-25 -25 -70 -41 -100 -15 -30 -31 -74 -35 -98 -4 -24 -18 -59 -31 -79 -14 -20
-28 -60 -33 -90 -10 -57 -14 -67 -40 -98 -10 -11 -23 -51 -30 -90 -6 -38 -20
-84 -31 -102 -11 -17 -26 -69 -33 -115 -8 -46 -23 -115 -35 -153 -12 -39 -29
-135 -37 -215 -8 -80 -25 -192 -37 -250 -21 -99 -22 -129 -22 -565 0 -410 2
-466 18 -517 9 -31 22 -103 27 -160 19 -184 31 -262 50 -323 11 -33 26 -101
34 -151 8 -50 24 -106 36 -126 11 -20 25 -64 31 -99 6 -40 18 -72 34 -91 13
-16 27 -45 30 -66 13 -80 17 -92 35 -115 10 -13 26 -51 34 -84 9 -34 30 -90
46 -125 17 -35 30 -70 30 -79 0 -8 13 -35 29 -60 16 -24 32 -58 35 -75 4 -17
18 -42 32 -55 13 -12 29 -40 34 -61 6 -21 21 -48 34 -60 13 -13 29 -41 36 -63
7 -22 21 -49 31 -60 10 -11 27 -40 37 -65 11 -25 32 -60 46 -79 14 -19 26 -40
26 -46 0 -7 10 -20 21 -31 12 -10 30 -38 40 -60 11 -23 30 -49 43 -58 14 -8
28 -26 32 -38 3 -13 18 -37 33 -54 14 -17 34 -44 44 -60 41 -69 91 -131 176
-222 29 -31 72 -82 94 -112 53 -70 204 -228 226 -235 9 -3 24 -17 33 -32 21
-37 160 -173 283 -278 18 -15 48 -42 67 -59 19 -17 50 -42 68 -56 18 -14 47
-37 64 -51 17 -14 45 -33 63 -42 17 -9 38 -23 46 -31 25 -25 184 -150 213
-168 47 -28 66 -40 137 -88 38 -25 84 -54 102 -65 19 -12 42 -28 52 -36 10 -9
36 -25 58 -36 89 -46 139 -74 154 -86 9 -8 37 -21 62 -31 26 -9 55 -26 64 -36
10 -11 26 -20 36 -20 10 0 30 -11 46 -24 15 -13 39 -27 53 -31 14 -4 43 -17
65 -30 22 -12 58 -28 80 -35 22 -7 51 -21 65 -30 14 -10 41 -21 60 -25 19 -4
51 -17 70 -30 19 -13 55 -28 78 -34 24 -5 54 -18 65 -29 12 -11 40 -23 62 -27
22 -4 52 -15 67 -26 15 -10 51 -24 80 -30 29 -6 70 -20 90 -30 21 -11 69 -26
108 -34 39 -8 85 -22 102 -31 17 -9 60 -20 95 -25 37 -5 78 -18 94 -30 18 -13
58 -25 102 -31 39 -5 86 -18 102 -28 17 -11 67 -23 113 -29 45 -6 112 -19 150
-30 37 -11 130 -27 207 -36 77 -9 166 -23 199 -31 33 -9 141 -19 250 -24 111
-5 227 -17 276 -27 73 -16 138 -18 475 -18 336 0 402 2 475 18 48 10 169 22
280 27 111 5 219 16 250 24 30 9 118 22 195 31 77 9 170 25 207 36 38 11 105
24 149 30 45 5 100 19 122 30 22 12 65 23 96 26 32 3 74 16 96 29 23 13 71 28
107 33 36 5 77 16 90 25 13 8 56 22 96 31 40 8 85 21 100 29 15 8 56 22 90 30
34 9 76 25 94 35 18 11 49 22 68 26 19 4 51 17 70 30 19 13 49 27 65 31 17 4
48 17 71 30 22 13 47 24 55 24 8 0 39 13 69 29 30 15 68 31 84 35 16 4 45 18
65 32 19 13 43 24 53 24 9 0 29 11 45 24 15 13 45 28 65 35 20 7 42 19 48 26
7 8 59 37 115 65 56 28 108 57 115 65 7 8 18 15 25 15 7 0 36 16 64 35 28 19
55 35 59 35 5 0 27 13 48 30 111 84 163 119 225 150 21 11 39 24 39 29 0 4 12
14 28 22 15 7 36 22 47 31 11 10 37 33 57 50 20 18 55 47 78 63 90 66 179 140
247 206 40 38 76 69 81 69 5 0 83 73 173 163 180 178 280 289 418 462 22 28
53 64 70 81 17 16 31 35 31 40 0 6 16 29 35 51 19 23 35 46 35 51 0 6 16 29
35 52 19 23 35 48 35 56 0 8 16 30 35 50 19 19 35 41 35 48 0 7 11 25 25 40
14 15 32 41 41 59 9 18 27 45 40 60 13 16 24 34 24 41 0 7 14 34 31 61 17 28
38 67 45 88 8 21 25 52 39 69 14 16 25 38 25 49 0 26 14 52 45 83 14 14 25 35
25 46 0 25 25 77 40 82 5 1 16 28 24 58 8 30 25 75 39 100 13 25 30 72 37 105
6 33 21 74 31 92 11 17 25 60 30 95 6 35 22 80 36 102 16 25 29 64 35 109 6
42 20 88 33 112 17 28 27 68 35 131 5 50 19 117 30 150 21 60 35 178 65 549
20 253 19 421 -5 720 -27 342 -37 420 -60 493 -11 34 -25 104 -31 155 -8 64
-18 105 -35 133 -15 25 -28 69 -33 113 -6 43 -16 80 -26 91 -22 24 -44 87 -45
125 0 17 -11 51 -24 76 -14 25 -32 75 -40 111 -8 36 -25 82 -36 101 -12 20
-28 59 -35 87 -7 27 -25 64 -39 81 -14 17 -26 41 -26 54 0 14 -13 39 -29 57
-16 18 -34 52 -40 74 -6 22 -20 49 -30 58 -11 10 -27 38 -35 63 -9 25 -27 61
-41 79 -14 18 -25 37 -25 42 0 5 -15 32 -34 59 -18 26 -36 58 -40 70 -4 12
-17 28 -30 37 -14 8 -30 32 -36 53 -7 21 -23 47 -36 58 -14 11 -32 34 -42 51
-26 48 -55 93 -79 128 -13 17 -31 44 -40 59 -10 16 -45 57 -78 93 -33 35 -76
84 -95 109 -72 93 -115 143 -214 246 -55 59 -108 115 -117 125 -14 17 -67 66
-189 176 -19 17 -69 62 -110 101 -41 38 -94 82 -117 99 -24 16 -43 33 -43 38
0 5 -9 12 -20 15 -12 4 -36 21 -55 38 -51 47 -89 79 -127 105 -93 64 -154 102
-162 102 -8 0 -69 48 -112 90 -12 11 -26 20 -32 20 -6 0 -23 11 -39 24 -15 13
-48 33 -73 45 -25 12 -70 37 -100 56 -30 19 -74 44 -97 55 -23 11 -45 25 -49
31 -3 6 -25 19 -48 28 -23 10 -47 26 -55 35 -7 9 -19 16 -26 16 -8 0 -43 16
-79 35 -37 19 -72 35 -80 35 -7 0 -30 11 -50 25 -20 14 -55 29 -76 34 -22 5
-53 21 -70 35 -18 14 -38 26 -46 26 -8 0 -40 14 -71 30 -31 17 -62 30 -70 30
-7 0 -35 11 -61 24 -26 12 -69 28 -97 35 -27 7 -60 19 -72 27 -13 8 -53 21
-90 30 -38 8 -81 24 -98 34 -16 10 -50 21 -75 25 -25 4 -63 18 -85 30 -22 13
-62 26 -90 30 -27 4 -66 15 -86 26 -20 10 -68 23 -105 29 -38 6 -107 22 -154
35 -47 13 -126 29 -176 34 -50 5 -109 17 -130 26 -22 9 -90 20 -155 25 -77 6
-135 16 -170 31 -43 17 -89 23 -228 30 -96 5 -215 16 -265 25 -71 13 -170 17
-461 19 -203 2 -381 1 -395 -1z m-145 -642 c28 -12 72 -26 100 -32 27 -6 55
-15 61 -21 7 -5 38 -23 70 -40 86 -44 127 -70 165 -107 19 -18 37 -36 42 -40
10 -9 69 -90 82 -112 28 -46 38 -52 86 -48 26 3 75 19 110 35 35 17 84 36 107
43 24 6 63 21 85 33 39 20 56 22 222 22 175 0 181 -1 230 -26 28 -15 61 -30
75 -34 14 -4 39 -17 55 -29 17 -12 42 -27 57 -34 38 -16 116 -89 135 -126 9
-17 26 -43 38 -58 12 -14 37 -73 56 -130 41 -125 44 -204 12 -293 -11 -33 -26
-78 -32 -101 -19 -70 -134 -208 -211 -252 -25 -14 -56 -34 -69 -44 -13 -10
-31 -18 -41 -18 -9 0 -39 -12 -66 -26 -88 -47 -389 -58 -496 -18 -23 9 -65 24
-93 34 -113 40 -228 138 -280 240 -10 19 -26 45 -36 58 -10 13 -21 43 -25 67
-3 24 -12 52 -19 62 -13 16 -15 17 -30 2 -13 -13 -14 -26 -5 -95 7 -50 18 -88
31 -104 11 -14 28 -44 38 -66 11 -23 24 -45 30 -49 6 -3 29 -30 51 -59 33 -45
49 -58 107 -81 37 -14 75 -33 84 -41 9 -8 41 -19 72 -25 32 -5 76 -19 100 -29
59 -27 207 -28 268 -1 59 26 197 45 215 30 19 -15 18 -63 -1 -79 -8 -7 -20
-31 -25 -54 -17 -63 -31 -94 -45 -100 -8 -3 -21 -29 -30 -59 -9 -30 -25 -63
-35 -72 -11 -10 -25 -37 -31 -59 -6 -23 -22 -57 -35 -77 -14 -20 -30 -54 -35
-75 -16 -55 -36 -81 -85 -110 -88 -51 -301 -29 -343 36 -8 14 -27 36 -42 50
-17 17 -28 41 -33 71 -4 26 -18 61 -31 79 -13 17 -27 51 -30 73 -4 23 -22 80
-40 127 -19 47 -37 113 -40 146 -7 58 -6 62 25 97 27 31 29 38 15 43 -25 10
-102 -4 -153 -27 -65 -29 -189 -31 -252 -2 -25 11 -64 23 -85 27 -53 10 -164
84 -211 141 -21 25 -46 47 -55 50 -11 4 -22 25 -29 56 -14 59 -34 60 -38 1 -2
-32 3 -49 27 -83 17 -23 31 -46 31 -51 0 -5 38 -47 85 -93 52 -51 85 -91 85
-104 0 -30 -39 -129 -59 -149 -10 -9 -30 -34 -46 -55 -16 -21 -47 -48 -69 -59
-22 -11 -52 -29 -66 -39 -32 -23 -186 -59 -254 -59 -29 0 -92 9 -142 20 -121
27 -128 26 -145 -12 -8 -19 -33 -44 -61 -60 -97 -59 -422 -62 -521 -5 -23 13
-53 27 -67 30 -14 4 -37 17 -53 29 -15 13 -50 41 -78 63 -27 22 -57 54 -66 70
-9 17 -26 41 -39 54 -13 13 -26 40 -30 60 -4 20 -17 56 -30 81 -33 61 -33 146
0 215 12 28 26 68 30 90 4 23 20 53 36 70 123 128 152 156 186 173 22 11 47
29 57 40 10 11 38 23 64 27 26 4 62 15 82 26 28 15 56 19 136 19 138 0 138 0
126 119 -15 139 -5 243 29 316 55 118 61 130 83 164 32 49 156 173 197 196
116 67 192 104 231 110 24 4 58 14 74 23 53 27 87 31 245 29 134 -3 162 -6
205 -25z m3572 -368 c38 -20 75 -41 83 -49 8 -7 34 -22 58 -34 23 -12 42 -26
42 -31 0 -5 9 -11 20 -15 11 -3 42 -22 69 -41 28 -19 54 -34 59 -34 5 0 17 -9
27 -20 10 -11 27 -22 39 -26 19 -6 86 -44 229 -131 28 -18 69 -41 90 -53 24
-13 44 -34 53 -56 16 -39 11 -56 -30 -91 -14 -13 -26 -31 -26 -42 0 -11 -16
-38 -35 -61 -19 -23 -35 -46 -35 -51 0 -23 -42 -49 -80 -49 -57 0 -76 25 -82
109 -5 64 -8 71 -48 111 -55 55 -92 58 -146 10 -22 -18 -45 -43 -53 -54 -8
-12 -42 -52 -76 -91 -60 -68 -62 -72 -67 -134 -5 -73 -20 -91 -76 -91 -28 0
-44 -9 -80 -45 l-45 -45 6 -97 c4 -74 2 -103 -9 -125 -20 -39 -87 -72 -132
-64 -41 6 -222 94 -222 107 0 4 -13 15 -30 24 -16 8 -40 26 -54 40 -14 14 -31
25 -39 25 -8 0 -22 9 -32 20 -20 22 -17 61 9 123 18 44 46 57 125 57 44 0 62
4 75 19 10 11 30 24 45 31 32 13 61 66 61 111 0 17 5 39 10 50 12 21 106 79
130 79 17 1 81 69 140 148 47 64 58 108 36 150 -20 39 -67 47 -201 37 -51 -4
-103 -4 -114 0 -56 18 -45 85 25 148 26 23 64 58 85 77 83 77 100 90 114 90 8
0 45 -16 82 -36z m-6501 -272 c61 -34 104 -64 104 -73 0 -5 14 -16 32 -25 29
-15 108 -89 108 -100 0 -20 -26 -44 -66 -59 -38 -14 -53 -16 -84 -6 -54 16
-96 14 -138 -8 -100 -51 -94 -97 30 -219 140 -136 147 -142 188 -142 51 0 70
-18 77 -70 7 -56 39 -92 115 -131 47 -24 70 -29 128 -29 l71 0 44 -47 c44 -47
51 -65 39 -98 -6 -16 -159 -148 -248 -215 -26 -19 -60 -45 -75 -57 -16 -13
-41 -23 -56 -23 -15 0 -40 10 -55 23 -16 12 -40 30 -55 40 -25 18 -25 21 -19
95 6 74 5 78 -22 113 -16 20 -33 44 -39 54 -7 11 -33 19 -85 26 -41 5 -80 15
-87 22 -7 7 -17 43 -21 81 -10 75 -8 74 -137 184 -87 75 -141 100 -174 82 -11
-5 -33 -27 -48 -47 -24 -31 -28 -46 -29 -102 -1 -86 -8 -106 -49 -131 -52 -32
-86 -24 -110 28 -12 23 -30 49 -42 57 -11 8 -26 28 -33 45 -7 16 -16 30 -21
30 -4 0 -20 17 -34 37 -32 48 -33 97 -2 124 66 59 167 139 176 139 5 0 19 14
31 30 12 17 26 30 32 30 6 0 25 12 43 28 19 15 68 54 111 87 42 33 97 79 123
101 25 23 75 65 111 93 73 56 111 64 166 33z m7733 -629 c165 -160 228 -225
261 -268 19 -25 49 -63 67 -84 18 -21 37 -58 43 -85 6 -26 21 -64 34 -84 38
-58 39 -170 2 -205 -13 -12 -30 -36 -39 -53 -18 -34 -51 -63 -122 -107 -67
-42 -208 -57 -320 -34 l-80 17 -38 -38 c-21 -20 -47 -53 -57 -72 -10 -19 -27
-43 -39 -54 -28 -25 -35 -70 -23 -147 11 -72 3 -104 -28 -114 -11 -4 -32 -17
-47 -31 -14 -13 -34 -24 -43 -24 -19 0 -110 66 -110 80 0 10 -66 77 -143 147
-63 56 -63 85 -3 148 35 36 51 45 78 45 42 0 112 49 135 94 9 17 26 44 39 59
29 34 33 97 7 118 -9 8 -39 14 -73 14 -50 -1 -62 -5 -94 -33 -20 -18 -41 -32
-46 -32 -16 0 -50 -77 -50 -114 0 -40 -18 -53 -102 -76 -64 -17 -112 3 -176
71 -51 56 -111 115 -154 153 -43 38 -38 78 14 127 l42 39 89 0 c87 0 91 1 151
40 113 73 144 100 151 130 9 41 34 59 100 71 32 6 73 21 90 35 18 13 37 24 43
24 12 0 137 101 160 128 6 9 12 41 12 72 0 69 14 85 85 98 102 20 108 18 184
-55z m-2925 -73 c33 -5 68 -18 80 -29 12 -11 44 -22 76 -26 30 -4 75 -17 100
-29 25 -13 64 -26 87 -30 23 -3 58 -17 77 -30 19 -13 52 -26 73 -29 22 -4 49
-17 62 -31 13 -14 40 -28 62 -31 22 -4 52 -17 67 -30 15 -12 44 -27 64 -33 21
-6 50 -20 64 -31 15 -12 32 -21 39 -21 18 0 164 -76 184 -95 9 -9 31 -26 50
-38 100 -65 139 -88 167 -101 17 -8 37 -22 44 -31 7 -9 26 -23 41 -31 16 -8
40 -25 55 -38 47 -42 88 -76 134 -111 25 -19 54 -42 65 -52 11 -10 56 -50 100
-88 44 -39 96 -86 115 -104 19 -18 38 -36 43 -39 32 -28 131 -143 144 -167 9
-16 28 -42 42 -57 79 -81 171 -196 171 -213 0 -8 11 -24 24 -37 13 -13 29 -39
35 -59 6 -20 22 -46 36 -59 13 -12 27 -37 31 -54 3 -17 19 -44 34 -61 15 -16
31 -45 35 -63 4 -19 20 -45 35 -59 16 -14 33 -43 39 -67 6 -23 19 -53 31 -66
20 -23 40 -79 40 -114 0 -11 11 -36 25 -56 16 -23 30 -62 36 -101 6 -38 20
-79 35 -100 19 -28 27 -57 33 -119 6 -57 15 -90 29 -110 29 -38 39 -88 46
-217 4 -62 15 -150 25 -195 37 -161 35 -394 -4 -531 -8 -29 -19 -119 -24 -200
-9 -137 -11 -152 -37 -190 -22 -33 -29 -59 -35 -125 -6 -64 -13 -92 -32 -120
-16 -23 -29 -62 -35 -104 -6 -37 -22 -86 -35 -110 -14 -24 -28 -61 -32 -83 -4
-22 -20 -60 -36 -84 -16 -25 -29 -52 -29 -62 0 -28 -21 -67 -45 -83 -12 -8
-27 -32 -33 -55 -7 -22 -21 -45 -32 -51 -10 -5 -24 -27 -31 -47 -18 -59 -28
-66 -77 -60 -69 8 -160 105 -142 152 4 11 5 59 2 107 -5 92 6 141 37 158 35
18 46 -4 46 -93 0 -64 -4 -89 -18 -111 -18 -27 -18 -30 -1 -67 16 -37 37 -48
59 -31 17 12 63 85 70 112 4 14 18 36 30 50 13 14 29 45 35 70 7 24 24 59 40
76 15 18 30 49 33 72 4 22 19 55 34 73 19 23 29 48 34 90 4 32 18 80 31 106
17 32 29 80 37 143 7 52 21 115 32 140 30 68 43 236 43 585 0 341 -13 513 -43
591 -11 28 -25 91 -32 140 -6 51 -22 112 -36 143 -14 30 -29 84 -34 120 -4 40
-14 70 -23 77 -20 14 -46 76 -46 109 0 15 -12 35 -30 52 -20 17 -32 40 -36 65
-4 21 -19 54 -35 74 -15 19 -31 49 -35 67 -3 17 -19 47 -34 67 -15 19 -31 48
-35 64 -3 17 -20 45 -36 63 -16 19 -29 40 -29 48 0 9 -12 25 -26 38 -15 12
-35 41 -44 64 -10 22 -28 44 -39 48 -11 3 -23 16 -27 28 -4 12 -21 38 -39 58
-18 20 -36 46 -39 57 -4 12 -16 24 -26 27 -10 3 -22 15 -25 26 -4 11 -23 37
-43 57 -20 21 -76 78 -124 128 -47 49 -103 103 -122 119 -20 17 -49 42 -64 58
-14 15 -31 27 -38 27 -6 0 -22 12 -37 28 -14 15 -44 41 -67 57 -22 17 -61 46
-85 65 -80 63 -100 77 -133 94 -18 9 -42 26 -53 37 -10 10 -25 19 -32 19 -8 0
-22 9 -33 21 -10 11 -34 27 -54 35 -19 8 -44 23 -55 33 -11 10 -35 23 -54 30
-19 6 -40 20 -48 30 -7 11 -29 25 -49 31 -20 7 -52 23 -72 36 -19 13 -43 24
-52 24 -9 0 -33 11 -53 24 -19 13 -50 27 -68 31 -19 4 -50 17 -69 30 -19 12
-52 26 -72 29 -21 4 -50 17 -65 30 -15 13 -48 27 -73 31 -25 4 -61 17 -80 30
-19 13 -57 26 -85 30 -27 3 -65 15 -83 26 -19 11 -66 24 -105 29 -39 6 -82 18
-96 27 l-25 16 28 23 c30 27 59 29 150 14z m-6016 -262 c13 -13 68 -43 142
-78 25 -11 52 -25 60 -30 8 -6 32 -19 53 -30 34 -18 38 -25 35 -53 -2 -26 -11
-36 -45 -55 -23 -12 -69 -28 -103 -34 -42 -7 -72 -19 -94 -37 -17 -15 -41 -34
-53 -42 -12 -8 -42 -41 -67 -74 -42 -54 -46 -63 -46 -116 0 -55 2 -59 39 -88
21 -17 45 -31 53 -31 24 0 98 59 98 78 0 33 30 62 77 73 28 8 69 31 107 62 33
27 95 65 136 84 69 33 84 36 196 40 l121 6 84 -38 c81 -37 179 -117 179 -147
0 -6 12 -36 27 -67 40 -85 41 -140 4 -233 -17 -42 -31 -81 -31 -86 0 -6 -11
-19 -23 -29 -13 -10 -30 -30 -37 -43 -15 -30 -66 -77 -140 -129 -55 -39 -66
-55 -116 -169 -31 -72 -60 -88 -97 -55 -12 11 -37 26 -54 33 -18 7 -33 17 -33
22 0 5 -24 21 -52 35 -92 44 -153 77 -186 102 -27 19 -33 29 -30 55 3 34 15
40 143 66 152 31 177 39 202 64 14 14 30 26 36 26 19 0 89 82 108 127 37 87
21 133 -59 163 -60 23 -86 19 -149 -20 -39 -23 -123 -136 -123 -165 0 -36 -17
-48 -75 -56 -36 -5 -71 -18 -95 -34 -41 -28 -151 -55 -226 -55 -124 0 -272 70
-314 148 -11 21 -30 50 -43 65 -20 26 -22 39 -21 150 0 129 2 136 60 217 48
69 170 194 220 226 48 31 52 36 58 83 9 69 43 100 74 69z m2348 -224 c20 -29
6 -56 -36 -74 -16 -7 -30 -17 -30 -22 0 -5 -15 -15 -33 -23 -18 -7 -41 -23
-51 -34 -11 -12 -24 -21 -30 -21 -12 0 -99 -61 -151 -105 -16 -14 -48 -40 -69
-58 -22 -18 -50 -42 -63 -54 -13 -13 -33 -28 -46 -34 -12 -7 -30 -23 -40 -36
-10 -12 -23 -23 -29 -23 -15 0 -299 -295 -318 -330 -6 -10 -19 -21 -29 -25
-11 -3 -23 -15 -26 -26 -7 -20 -64 -94 -109 -140 -14 -15 -26 -32 -26 -38 0
-6 -18 -31 -40 -55 -22 -24 -40 -48 -40 -54 0 -6 -13 -21 -29 -33 -16 -12 -33
-38 -40 -60 -6 -21 -20 -44 -31 -52 -11 -8 -27 -34 -35 -58 -9 -24 -27 -54
-40 -67 -14 -13 -25 -32 -25 -43 0 -26 -14 -52 -45 -83 -16 -16 -25 -36 -25
-56 0 -22 -10 -41 -31 -63 -26 -26 -33 -42 -40 -101 -5 -38 -18 -87 -29 -108
-11 -21 -20 -49 -20 -62 0 -30 21 -48 40 -36 8 6 44 10 80 10 73 -1 65 -14
-14 -24 -59 -8 -66 -12 -66 -33 0 -9 -15 -31 -32 -49 -87 -87 -87 -86 -103
-276 -8 -95 -22 -220 -30 -278 -20 -124 -15 -351 9 -470 8 -41 18 -149 22
-240 6 -142 9 -168 26 -186 26 -29 38 -78 38 -156 0 -64 14 -98 40 -98 11 0
26 -51 35 -111 4 -35 13 -51 34 -67 21 -15 30 -32 35 -67 6 -34 14 -50 34 -62
37 -24 42 -34 36 -68 -7 -38 7 -75 40 -108 14 -15 26 -37 26 -50 0 -14 15 -39
35 -60 19 -20 35 -45 35 -55 0 -10 16 -35 35 -55 19 -20 35 -43 35 -51 0 -9
13 -28 29 -42 16 -14 35 -39 41 -55 7 -17 23 -32 37 -35 17 -5 31 -22 47 -58
27 -59 65 -98 98 -99 43 -1 232 44 264 63 17 11 61 24 98 29 36 5 81 18 99 29
17 11 59 23 92 27 33 4 81 16 106 26 26 10 84 25 130 33 46 9 107 25 134 36
28 10 76 24 107 29 31 6 75 19 97 30 22 12 65 24 96 27 37 5 67 15 84 29 14
12 43 28 64 34 41 14 57 35 57 78 0 22 6 31 28 39 20 8 31 22 40 52 10 33 20
45 48 57 19 8 37 21 40 29 13 35 64 24 64 -14 0 -9 -13 -34 -30 -55 -16 -21
-30 -44 -30 -52 0 -8 -12 -25 -26 -38 l-26 -25 28 -11 c16 -6 44 -8 63 -5 46
7 203 57 219 69 6 5 12 27 12 49 0 64 51 63 64 -2 7 -36 15 -37 86 -7 78 32
80 34 73 67 -4 23 -2 30 11 30 10 0 16 -9 16 -25 0 -44 31 -48 86 -10 27 18
62 47 77 64 28 30 85 50 106 36 14 -8 14 -42 1 -50 -6 -4 -19 -24 -30 -46 -16
-30 -18 -44 -10 -58 13 -24 13 -58 1 -66 -6 -3 -36 -10 -68 -16 -32 -6 -70
-17 -86 -26 -16 -8 -62 -21 -103 -28 -41 -8 -85 -22 -98 -30 -13 -9 -55 -22
-94 -29 -39 -7 -85 -22 -104 -34 -18 -11 -60 -23 -93 -27 -33 -3 -76 -15 -96
-25 -20 -10 -67 -23 -105 -29 -38 -6 -96 -20 -129 -31 -33 -12 -92 -27 -132
-35 -39 -8 -86 -21 -103 -30 -17 -9 -59 -21 -93 -26 -34 -6 -76 -19 -94 -30
-17 -11 -60 -24 -94 -30 -34 -5 -79 -19 -100 -29 -21 -11 -69 -24 -106 -30
-37 -5 -90 -18 -118 -29 -27 -10 -84 -24 -125 -31 -41 -7 -93 -21 -115 -33
-22 -11 -68 -22 -102 -25 -72 -5 -78 -16 -40 -73 18 -28 30 -35 62 -37 34 -3
44 1 66 27 21 26 91 61 120 61 15 0 39 -31 39 -51 0 -11 -12 -32 -26 -46 -14
-14 -32 -44 -40 -66 -8 -23 -21 -48 -29 -57 -14 -15 -13 -19 5 -35 11 -10 20
-24 20 -32 0 -7 16 -21 35 -30 19 -9 37 -24 40 -33 3 -9 17 -22 32 -29 15 -7
33 -21 41 -32 7 -10 18 -19 24 -19 6 0 25 -11 42 -24 17 -13 50 -33 74 -45 23
-12 42 -25 42 -30 0 -4 12 -14 28 -21 15 -8 38 -25 52 -37 47 -44 98 -83 107
-83 6 0 28 -12 49 -26 21 -15 52 -31 69 -37 16 -5 39 -18 50 -27 11 -10 40
-26 65 -37 25 -11 51 -27 59 -36 7 -10 22 -17 32 -17 10 0 33 -13 51 -28 18
-16 50 -32 72 -35 22 -3 51 -17 65 -30 15 -15 43 -27 68 -30 23 -3 55 -14 72
-26 16 -12 50 -24 76 -28 26 -3 61 -16 79 -28 18 -12 61 -27 96 -33 44 -8 69
-19 86 -37 18 -19 33 -25 66 -25 58 0 107 -15 130 -40 16 -17 32 -20 101 -20
58 -1 98 -7 137 -21 41 -15 103 -24 240 -34 108 -8 212 -21 250 -31 58 -16
110 -18 480 -19 364 0 421 2 465 17 59 20 117 27 281 33 100 3 129 8 164 26
33 17 65 23 144 27 83 4 103 8 114 23 15 21 71 39 123 39 25 0 48 9 72 29 25
19 52 30 88 34 32 4 61 14 74 27 12 11 47 25 81 31 32 5 72 20 88 31 16 11 50
23 75 26 29 3 55 13 71 27 14 13 43 28 64 34 21 5 48 19 60 29 12 11 38 25 59
32 20 6 41 19 46 29 6 10 29 23 53 30 23 7 56 24 71 37 16 13 37 24 48 24 10
0 27 9 36 20 10 11 33 25 53 31 36 12 74 39 136 97 19 17 40 32 48 32 7 0 23
11 36 25 13 14 28 25 34 25 6 0 31 14 55 30 24 17 54 30 66 30 40 0 62 -45 28
-57 -10 -3 -29 -16 -43 -29 -78 -73 -146 -120 -230 -160 -19 -9 -40 -24 -47
-34 -7 -10 -26 -21 -42 -25 -16 -3 -37 -15 -46 -25 -10 -11 -34 -25 -54 -31
-20 -7 -48 -25 -62 -41 -15 -15 -35 -28 -46 -28 -10 0 -38 -14 -62 -30 -24
-17 -54 -30 -66 -30 -12 0 -32 -9 -45 -20 -21 -18 -79 -40 -106 -40 -6 0 -21
-9 -33 -19 -12 -11 -45 -25 -74 -31 -29 -6 -56 -19 -64 -30 -8 -11 -36 -23
-71 -31 -31 -6 -69 -22 -85 -35 -19 -16 -46 -25 -88 -30 -36 -4 -70 -15 -85
-27 -19 -15 -47 -21 -114 -26 -64 -4 -94 -11 -108 -24 -23 -21 -111 -37 -200
-37 -45 0 -64 -4 -68 -14 -10 -25 -65 -37 -204 -45 -92 -5 -145 -13 -166 -24
-64 -33 -149 -38 -599 -35 -434 3 -441 3 -495 26 -43 18 -85 25 -192 32 -128
8 -174 18 -190 44 -4 6 -54 14 -111 17 -97 6 -143 18 -159 42 -3 6 -44 13 -91
17 -58 4 -95 13 -118 27 -19 11 -60 24 -92 28 -39 4 -66 14 -86 31 -17 14 -48
27 -77 31 -33 4 -57 15 -77 35 -19 18 -41 28 -59 28 -33 0 -69 16 -81 36 -4 7
-29 16 -55 20 -26 3 -56 15 -68 25 -11 11 -43 26 -70 34 -28 8 -59 24 -69 35
-10 11 -26 20 -36 20 -10 0 -33 13 -51 29 -18 16 -47 32 -64 35 -17 4 -42 18
-54 32 -13 13 -29 24 -35 24 -7 0 -29 13 -50 30 -20 16 -46 32 -58 36 -12 4
-35 17 -50 30 -16 13 -35 24 -42 24 -13 0 -49 29 -115 95 -14 14 -29 25 -34
25 -5 0 -23 12 -42 28 -18 15 -51 41 -74 57 -53 40 -142 119 -254 230 -50 50
-104 98 -119 108 -15 9 -27 24 -27 32 0 7 -11 22 -23 32 -13 10 -36 37 -50 60
-14 22 -49 64 -77 92 -27 27 -50 54 -50 60 0 5 -18 31 -40 56 -22 25 -40 53
-40 60 0 8 -9 19 -21 25 -11 6 -29 32 -40 58 -11 25 -29 52 -39 59 -11 8 -22
30 -26 49 -4 20 -19 49 -34 64 -16 16 -30 44 -34 68 -4 28 -12 43 -26 47 -23
7 -35 27 -44 74 -3 18 -19 48 -35 66 -17 20 -32 51 -36 77 -4 24 -18 60 -33
81 -19 29 -27 56 -31 112 -5 60 -11 79 -31 100 -23 24 -25 36 -28 131 -4 98
-5 106 -28 120 -31 21 -43 66 -50 199 -5 85 -12 122 -30 164 -58 130 -60 604
-3 730 15 33 23 79 29 164 6 93 13 125 30 154 12 20 28 75 36 122 9 46 23 98
32 114 9 16 23 39 29 51 7 11 13 35 13 53 0 39 16 82 39 108 10 11 22 42 26
69 5 35 15 56 35 75 15 14 31 40 34 57 4 17 20 44 36 59 16 15 32 42 36 59 3
17 19 45 34 61 15 17 30 43 34 58 4 16 17 38 30 50 13 12 28 39 35 59 7 20 23
43 36 52 13 8 27 26 30 38 4 13 20 37 35 53 77 82 108 118 140 161 51 68 120
146 162 185 21 19 69 63 106 99 87 82 190 173 208 183 8 4 26 19 40 32 14 12
40 35 58 49 17 14 44 37 59 51 15 14 41 32 57 40 17 9 30 20 30 26 0 5 19 19
43 30 47 22 99 57 137 93 53 49 89 53 116 10z m1884 -205 c6 -11 14 -70 17
-130 5 -81 9 -109 19 -109 28 0 45 -48 53 -153 5 -58 13 -112 18 -122 21 -36
33 13 42 171 5 87 12 167 16 177 21 51 47 -27 60 -176 5 -59 15 -99 36 -143
16 -33 32 -85 35 -115 9 -91 14 -119 24 -119 6 0 10 88 10 223 0 219 19 440
39 460 13 13 27 -18 40 -88 7 -39 20 -68 36 -85 25 -26 25 -27 8 -66 -14 -32
-18 -76 -21 -239 -1 -111 -8 -212 -14 -227 -8 -21 -22 -31 -60 -43 -27 -8 -62
-25 -78 -39 -16 -13 -52 -29 -80 -35 -28 -6 -64 -18 -80 -26 -42 -22 -186 -74
-245 -89 -27 -7 -68 -25 -89 -40 -41 -28 -94 -34 -114 -14 -7 7 -12 32 -12 58
0 64 -8 86 -36 100 -13 8 -33 28 -44 47 -15 27 -26 33 -52 33 -18 0 -48 11
-70 26 -37 26 -39 26 -181 22 -124 -4 -147 -7 -173 -25 -16 -11 -45 -25 -64
-32 -52 -17 -92 -59 -118 -124 -22 -52 -23 -61 -11 -107 10 -38 10 -63 2 -103
-6 -31 -7 -61 -2 -75 15 -38 10 -66 -17 -118 -34 -64 -31 -62 -98 -75 -33 -6
-72 -20 -87 -31 -25 -19 -33 -20 -68 -10 -21 7 -44 19 -51 27 -7 8 -21 15 -32
15 -11 0 -48 7 -82 17 -58 15 -67 15 -129 0 -36 -10 -82 -17 -100 -17 -41 0
-53 -12 -76 -77 -21 -59 -39 -64 -90 -24 -46 36 -148 71 -210 71 -25 0 -71 -7
-103 -16 -49 -14 -67 -26 -106 -70 -57 -64 -89 -78 -160 -69 -74 9 -92 29 -92
105 0 56 -2 60 -30 75 -34 18 -65 59 -55 75 19 30 105 -6 105 -45 0 -8 11 -22
24 -31 14 -8 28 -29 31 -45 8 -35 31 -49 82 -49 33 0 44 6 73 41 64 76 55 72
151 64 81 -7 88 -6 98 13 15 29 5 49 -30 56 -33 6 -49 33 -28 47 23 15 37 10
69 -21 18 -18 41 -30 57 -30 14 0 45 -11 67 -24 54 -31 143 -44 152 -22 9 23
-60 101 -98 112 -18 6 -34 17 -36 27 -5 25 58 23 91 -3 14 -11 36 -20 49 -20
13 0 41 -10 63 -21 54 -29 90 -39 106 -28 11 7 7 15 -18 38 -18 16 -33 35 -33
40 0 6 -7 11 -15 11 -8 0 -29 13 -47 28 -18 15 -45 33 -60 40 -16 6 -28 18
-28 27 0 8 -16 23 -35 32 -43 20 -43 47 0 51 19 3 33 -2 42 -15 8 -10 28 -23
46 -29 18 -6 36 -20 42 -32 5 -12 22 -26 38 -32 16 -5 42 -21 59 -35 16 -14
37 -25 47 -25 9 0 32 -11 51 -25 19 -14 41 -25 50 -25 9 0 25 -9 36 -21 17
-19 75 -49 95 -49 20 0 8 41 -14 49 -13 5 -38 23 -56 39 -52 47 -68 60 -93 73
-12 7 -53 42 -90 78 -38 36 -75 69 -83 74 -8 4 -15 16 -15 26 0 16 5 18 34 11
19 -4 47 -17 62 -29 15 -11 33 -21 40 -21 8 0 24 -11 36 -25 12 -14 27 -25 34
-25 8 0 29 -15 48 -32 50 -48 87 -74 132 -95 21 -10 45 -26 52 -35 16 -21 52
-24 52 -4 0 8 -13 19 -29 24 -16 6 -32 19 -35 29 -3 10 -19 26 -36 35 -16 9
-30 24 -30 32 0 9 -13 22 -29 31 -16 8 -32 24 -36 35 -3 11 -10 20 -15 20 -4
0 -21 14 -37 30 -15 17 -33 30 -40 30 -6 0 -21 13 -33 29 -11 17 -30 33 -41
36 -11 4 -24 18 -29 31 -5 13 -21 29 -36 34 -16 7 -24 16 -22 27 5 28 37 27
63 -1 13 -14 31 -26 39 -26 8 0 23 -10 33 -23 10 -12 29 -28 43 -35 22 -11
104 -73 260 -200 54 -44 82 -50 88 -19 2 11 -6 20 -22 26 -13 6 -30 20 -36 31
-6 12 -38 48 -71 81 -32 32 -59 63 -59 69 0 5 -16 25 -36 44 -37 36 -42 68
-12 74 9 2 22 -4 30 -13 19 -23 28 -31 75 -67 24 -18 56 -43 72 -55 30 -24 56
-29 65 -14 10 15 -23 79 -43 86 -11 3 -24 19 -29 35 -6 15 -19 33 -30 39 -20
11 -79 117 -70 126 9 10 87 -40 152 -98 36 -32 69 -56 75 -53 17 11 23 64 10
88 -7 12 -22 31 -34 40 -13 10 -25 28 -29 41 -3 13 -17 29 -31 35 -17 8 -28
24 -36 55 -7 31 -18 48 -35 56 -27 12 -32 46 -9 55 14 5 45 -18 45 -34 0 -4
16 -17 35 -29 21 -12 35 -28 35 -40 0 -11 18 -40 40 -63 22 -24 51 -54 63 -67
39 -42 63 -54 86 -42 17 10 19 15 9 44 -6 17 -23 43 -38 57 -17 17 -29 41 -33
68 -5 27 -14 45 -28 52 -14 8 -19 19 -17 38 4 35 29 35 45 1 7 -15 26 -32 42
-39 18 -7 34 -24 40 -40 10 -31 106 -130 125 -130 6 0 17 4 25 9 14 9 13 14
-14 61 -8 14 -15 37 -15 52 0 15 -8 33 -18 40 -25 17 -42 51 -42 83 0 19 -7
28 -27 36 -33 12 -43 26 -43 61 0 29 28 52 48 39 6 -3 18 -23 26 -42 8 -20 26
-43 40 -52 15 -10 28 -30 31 -51 4 -20 18 -42 34 -54 15 -11 33 -38 40 -61 7
-23 18 -44 26 -47 8 -3 23 -21 34 -40 20 -34 55 -46 63 -22 7 21 -17 86 -39
108 -19 17 -43 75 -43 104 0 4 -11 22 -26 38 -34 41 -31 93 6 93 21 0 27 -7
39 -43 9 -29 21 -46 37 -52 26 -10 44 -39 44 -69 0 -11 11 -28 23 -38 29 -22
47 -54 47 -82 0 -11 13 -29 28 -40 16 -11 33 -34 38 -51 11 -40 28 -43 32 -7
2 18 -5 37 -21 56 -18 22 -25 46 -31 101 -4 49 -13 80 -27 99 -25 35 -39 154
-19 166 21 13 41 -20 49 -80 6 -41 14 -64 30 -76 24 -19 51 -77 51 -109 0 -11
14 -34 30 -52 17 -17 36 -51 42 -76 11 -43 31 -63 48 -46 15 16 -8 155 -29
178 -28 30 -41 70 -41 129 0 46 -4 56 -30 79 -26 23 -30 33 -30 77 0 39 4 53
19 60 26 15 47 -12 56 -73 5 -36 11 -50 26 -53 24 -7 49 -52 49 -90 0 -48 12
-74 36 -83 23 -9 26 -16 39 -122 4 -27 10 -48 14 -48 12 0 24 105 16 143 -4
17 -14 40 -23 50 -21 23 -25 238 -5 258 15 15 28 -16 50 -116 8 -38 21 -77 28
-85 23 -25 42 -81 49 -141 8 -67 25 -95 51 -85 15 5 17 14 11 59 -3 28 -9 113
-12 187 -6 123 -9 137 -30 156 -27 26 -39 92 -31 171 8 76 34 105 57 62z
m2060 -89 c26 -16 -9 -40 -69 -47 -39 -4 -56 -12 -67 -28 -18 -27 -45 -36 -68
-23 -16 9 -16 11 0 29 9 10 25 19 35 19 10 0 23 9 29 21 6 11 21 24 33 29 30
12 88 12 107 0z m600 -47 c84 -63 100 -80 100 -104 0 -11 14 -34 31 -50 25
-23 30 -35 27 -66 -6 -78 -78 -42 -78 39 0 31 -4 38 -19 38 -21 0 -51 35 -51
60 0 8 -15 31 -32 50 l-32 35 -161 5 c-88 3 -166 9 -173 13 -33 22 8 28 166
25 l167 -3 55 -42z m-3206 -29 c3 -9 6 -31 6 -51 0 -30 -3 -34 -22 -31 -24 3
-45 54 -35 82 8 21 43 21 51 0z m2046 -34 c0 -33 -3 -40 -20 -40 -17 0 -20 7
-20 40 0 33 3 40 20 40 17 0 20 -7 20 -40z m-194 -14 c3 -15 -3 -43 -15 -71
-12 -26 -21 -67 -21 -91 0 -53 -21 -76 -63 -72 -36 3 -44 23 -46 107 -1 49 -5
57 -33 81 -28 24 -31 30 -19 44 20 24 50 20 61 -9 7 -19 17 -25 39 -25 23 0
31 6 40 30 13 38 48 41 57 6z m487 -3 c13 -12 -15 -33 -44 -33 -32 0 -48 18
-28 31 16 10 63 12 72 2z m-135 -65 c-4 -32 -52 -48 -75 -25 -23 23 -1 47 44
47 30 0 34 -3 31 -22z m678 -3 c24 -24 25 -29 19 -103 l-7 -77 32 -29 c28 -25
32 -33 26 -64 -8 -52 -27 -66 -90 -66 -40 -1 -62 4 -83 20 -43 32 -103 124
-103 159 0 44 65 132 120 161 55 30 55 30 86 -1z m-891 -5 c11 -11 31 -28 44
-38 32 -25 21 -38 -44 -53 -82 -18 -107 11 -65 79 23 37 36 40 65 12z m-796
-96 c23 -16 23 -18 19 -188 -3 -138 -7 -177 -21 -203 -34 -63 -80 -65 -98 -4
-16 53 -8 373 10 394 17 22 60 22 90 1z m2214 -110 c-3 -8 -9 -14 -13 -14 -10
0 -19 47 -11 55 9 10 30 -26 24 -41z m2782 36 c16 -6 32 -24 42 -47 8 -21 28
-53 44 -71 16 -18 29 -41 29 -51 0 -10 12 -36 27 -57 14 -21 32 -57 38 -79 7
-22 27 -68 44 -101 21 -42 31 -76 31 -107 l0 -46 -59 -30 c-58 -29 -61 -29
-107 -15 -63 19 -96 18 -125 -4 -13 -10 -45 -26 -71 -36 -27 -10 -48 -22 -48
-27 0 -5 -19 -18 -42 -29 -51 -23 -77 -44 -107 -87 -16 -23 -32 -34 -59 -38
-20 -3 -61 -17 -90 -30 -29 -14 -59 -25 -67 -25 -8 0 -28 -13 -45 -30 -17 -16
-35 -30 -41 -30 -6 0 -30 -16 -54 -36 -31 -27 -46 -49 -54 -79 -18 -72 -97
-124 -172 -113 -19 2 -34 23 -71 98 -27 52 -48 102 -48 111 0 9 -13 33 -30 54
-47 59 -39 106 26 145 30 19 44 21 94 16 72 -8 128 5 165 40 23 22 27 31 22
64 -6 46 -77 137 -114 146 -41 11 -122 -15 -145 -47 -25 -34 -68 -50 -137 -51
-53 -1 -76 11 -87 45 -4 12 -15 33 -26 47 -10 15 -26 52 -34 85 -9 32 -26 72
-39 89 -48 65 -42 100 25 135 44 23 75 27 85 10 4 -5 32 -21 62 -35 65 -28
117 -30 279 -10 112 14 140 23 163 50 7 8 30 18 53 21 33 6 46 3 71 -16 39
-29 113 -28 187 1 28 11 61 20 74 20 25 0 82 37 130 86 36 37 102 73 133 74
12 0 33 -4 48 -10z m-2697 -122 c7 -16 19 -28 27 -28 8 0 30 -16 49 -35 20
-19 42 -35 50 -35 8 0 21 -8 28 -18 7 -9 25 -23 41 -29 34 -16 35 -41 1 -49
-20 -5 -31 -2 -43 13 -9 11 -31 26 -48 33 -18 7 -33 16 -33 21 0 5 -16 17 -35
26 -19 9 -37 25 -40 34 -3 10 -15 21 -26 24 -23 8 -43 41 -35 61 9 24 49 12
64 -18z m-1494 6 c13 -5 14 -9 5 -20 -15 -18 -59 -18 -59 -1 0 26 21 34 54 21z
m-86 -71 c-2 -10 -13 -19 -26 -21 -24 -4 -29 7 -10 26 18 18 40 15 36 -5z
m-58 -53 c0 -12 -10 -25 -24 -32 -14 -6 -30 -24 -37 -39 -6 -17 -22 -32 -35
-35 -14 -4 -27 -16 -30 -30 -4 -14 -22 -36 -40 -51 -19 -14 -34 -32 -34 -40 0
-7 -16 -29 -35 -49 -26 -26 -35 -43 -35 -69 0 -21 -9 -44 -26 -64 -18 -22 -28
-49 -35 -98 -5 -38 -21 -95 -36 -128 -26 -58 -27 -66 -26 -235 0 -165 2 -179
26 -235 14 -33 30 -95 36 -137 7 -52 19 -88 35 -113 14 -20 28 -56 32 -80 4
-30 13 -49 29 -59 13 -9 26 -29 30 -46 4 -20 16 -34 30 -40 13 -5 31 -23 40
-40 8 -16 19 -30 24 -30 5 0 39 -35 76 -77 37 -43 79 -83 92 -90 13 -7 36 -21
50 -33 14 -11 37 -20 50 -20 13 0 34 -11 46 -24 12 -13 41 -29 65 -35 25 -7
49 -22 58 -36 9 -14 26 -25 38 -25 12 0 32 -7 44 -16 18 -13 21 -19 11 -30
-18 -22 -68 -17 -101 11 -17 14 -42 25 -59 25 -37 0 -69 16 -69 34 0 7 -20 21
-45 31 -25 9 -50 25 -55 35 -5 10 -23 22 -38 28 -16 6 -40 20 -53 31 -75 67
-93 81 -106 81 -7 0 -23 16 -34 35 -12 20 -29 40 -39 45 -10 5 -21 22 -25 37
-3 16 -22 42 -41 59 -22 20 -34 41 -34 57 0 18 -8 30 -27 39 -21 10 -31 25
-39 57 -6 27 -21 52 -37 65 -19 15 -30 36 -37 75 -5 30 -21 66 -35 82 -35 42
-39 78 -39 329 0 251 4 287 39 329 15 16 29 52 35 83 7 38 18 60 39 78 15 14
33 43 39 66 8 27 20 44 36 52 14 6 27 23 31 40 3 17 15 38 27 48 11 11 27 34
35 53 8 18 22 35 32 38 10 3 28 18 40 34 12 16 28 29 36 29 8 0 26 11 41 25
33 31 64 33 64 5z m2020 -68 c14 -10 32 -32 41 -49 8 -17 23 -38 32 -48 22
-21 21 -31 -2 -69 -10 -17 -22 -59 -25 -94 -7 -61 -6 -64 23 -91 24 -23 31
-37 31 -68 0 -36 -13 -63 -32 -63 -18 0 -40 64 -34 102 6 34 4 38 -15 38 -36
0 -58 19 -65 56 -8 44 9 104 36 129 23 21 26 50 5 58 -8 4 -21 22 -29 41 -10
25 -26 40 -53 51 -30 13 -35 18 -23 26 21 13 79 3 110 -19z m-2393 -16 c-3 -8
-11 -34 -17 -57 -7 -24 -24 -54 -40 -69 -16 -15 -33 -44 -39 -67 -17 -64 -114
-155 -214 -202 -45 -22 -102 -43 -127 -46 -25 -4 -62 -16 -82 -26 -21 -11 -61
-24 -89 -30 -29 -6 -73 -22 -97 -35 -25 -13 -55 -24 -68 -24 -27 0 -74 -20
-74 -31 0 -9 -57 -29 -84 -29 -12 0 -40 -9 -61 -20 -22 -11 -71 -29 -110 -39
-38 -10 -95 -28 -125 -39 -152 -54 -153 -54 -173 -30 -21 25 -17 58 13 100 11
15 31 51 44 80 29 66 99 133 146 143 19 4 62 20 95 36 33 16 68 29 78 29 9 0
43 14 74 30 31 17 65 30 76 30 11 0 39 11 61 24 23 13 59 28 81 31 22 4 56 16
76 26 19 9 64 25 100 34 35 9 78 25 94 35 17 10 50 21 75 25 25 4 54 15 65 25
11 11 43 24 70 30 28 6 66 22 85 35 20 14 60 29 90 34 80 13 83 13 77 -3z
m-5808 -106 c28 -22 51 -45 51 -50 0 -18 46 -29 193 -45 129 -14 147 -14 180
0 55 23 108 19 152 -11 37 -25 44 -25 205 -27 l167 -2 39 28 c58 39 121 38
169 -4 42 -37 44 -64 11 -113 -12 -19 -26 -56 -30 -82 -3 -26 -17 -67 -31 -90
-14 -23 -25 -50 -25 -58 0 -33 -37 -56 -93 -56 -50 0 -56 3 -112 54 -62 58
-96 70 -151 54 -45 -12 -55 -28 -65 -108 -15 -124 14 -153 154 -148 75 2 99
-1 132 -17 38 -19 40 -23 43 -69 3 -38 -2 -56 -22 -85 -14 -20 -30 -58 -36
-85 -6 -27 -19 -60 -30 -73 -51 -65 -62 -180 -64 -663 -1 -347 3 -311 -33
-355 l-31 -40 -85 -3 c-82 -4 -85 -3 -113 26 -28 28 -71 43 -209 73 -74 15
-157 11 -185 -11 -33 -26 -61 -25 -96 3 -27 21 -37 22 -215 22 l-186 0 -39
-27 c-31 -22 -52 -28 -93 -28 -92 0 -91 -2 -91 176 0 117 4 164 15 191 28 68
51 69 171 7 82 -42 97 -47 199 -56 120 -11 229 -5 251 13 15 12 38 9 124 -15
60 -18 224 -22 263 -7 14 5 35 24 48 42 19 28 23 48 27 140 4 103 3 110 -26
171 -16 34 -32 71 -36 81 -3 9 -14 20 -23 24 -10 3 -35 22 -55 41 -85 81 -20
118 142 82 49 -11 99 -20 110 -20 29 0 42 32 31 79 -14 65 -77 129 -181 184
-25 13 -59 31 -75 40 -17 9 -64 18 -110 20 -67 4 -82 8 -97 27 -10 12 -18 28
-18 34 0 28 -87 95 -165 126 -81 33 -131 39 -260 30 -64 -5 -141 17 -160 44
-21 30 -18 58 10 100 17 25 28 58 32 98 4 41 15 72 34 101 16 23 31 61 35 85
3 23 16 57 29 76 12 18 25 46 29 62 12 46 24 54 86 54 53 0 63 -4 109 -40z
m3109 -58 c3 -9 -2 -13 -14 -10 -9 1 -19 9 -22 16 -3 9 2 13 14 10 9 -1 19 -9
22 -16z m886 -8 c25 -25 29 -55 24 -232 -4 -185 -12 -212 -56 -212 -50 0 -52
9 -52 220 0 161 3 199 16 218 18 26 46 28 68 6z m3428 -273 c18 -11 50 -28 70
-37 22 -10 41 -28 49 -45 6 -16 16 -29 21 -29 5 0 20 -11 33 -25 33 -32 33
-75 0 -103 -35 -30 -34 -89 1 -131 34 -41 30 -81 -12 -101 -17 -8 -46 -32 -64
-53 -21 -24 -64 -54 -114 -78 -105 -51 -163 -53 -251 -9 -33 16 -65 30 -71 30
-6 0 -45 33 -87 73 l-76 72 -6 68 c-4 37 -4 96 0 132 6 59 11 70 58 126 36 42
70 70 112 91 84 43 108 48 212 44 73 -2 98 -7 125 -25z m-5259 -53 c23 -12 22
-35 -4 -43 -11 -4 -75 -5 -142 -4 -115 3 -122 2 -125 -16 -6 -28 -21 -45 -41
-45 -10 0 -26 -6 -36 -14 -17 -12 -19 -26 -17 -115 2 -112 -7 -144 -41 -139
-29 4 -35 45 -23 164 9 82 12 94 33 103 13 6 23 17 23 25 0 23 29 46 59 46 16
0 37 10 50 24 13 14 35 27 50 29 41 5 194 -5 214 -15z m2165 -50 c19 -19 14
-49 -14 -89 -14 -21 -30 -56 -35 -79 -20 -87 -118 -167 -242 -196 -32 -8 -71
-20 -86 -28 -15 -8 -58 -22 -95 -30 -36 -9 -76 -22 -89 -30 -12 -9 -51 -22
-86 -30 -34 -8 -71 -22 -80 -30 -9 -8 -41 -20 -71 -27 -30 -6 -64 -20 -76 -30
-11 -10 -47 -24 -80 -30 -32 -6 -69 -17 -80 -24 -12 -8 -55 -23 -95 -34 -113
-31 -228 -71 -284 -97 -28 -13 -61 -24 -75 -24 -13 0 -40 -11 -60 -25 -19 -14
-60 -29 -89 -35 -30 -5 -69 -20 -89 -32 -41 -25 -114 -30 -136 -8 -13 13 -13
23 4 84 16 57 27 75 65 110 77 70 104 87 155 101 27 7 61 22 75 33 13 11 46
23 72 27 27 4 62 15 79 26 17 10 57 25 90 32 33 8 73 21 90 30 16 8 58 23 92
31 34 9 76 25 94 35 18 11 49 22 68 26 19 4 53 17 75 30 22 12 59 26 82 30 22
3 49 15 58 25 10 11 43 24 74 31 31 6 73 20 93 30 21 11 61 24 90 30 29 6 68
20 87 32 18 11 54 24 80 29 25 4 58 17 72 27 15 11 43 23 63 26 20 4 47 16 60
26 48 38 120 51 144 27z m4020 -49 c2 -30 -1 -66 -6 -79 -8 -22 -11 -19 -22
33 -13 63 -7 111 13 104 7 -2 13 -27 15 -58z m2597 -129 c44 -17 72 -96 92
-258 19 -164 15 -184 -44 -209 -50 -20 -114 -12 -152 19 -31 27 -150 56 -171
43 -7 -4 -61 -11 -121 -16 -88 -6 -115 -12 -140 -30 -28 -20 -43 -22 -136 -21
-232 4 -364 -34 -398 -114 -16 -39 -67 -74 -108 -74 -18 0 -41 13 -68 38 l-41
37 -10 120 c-6 66 -17 135 -24 154 -20 48 -17 75 11 109 42 50 134 51 173 2
24 -29 106 -38 252 -27 104 8 118 11 142 35 28 25 29 26 195 27 166 0 169 1
256 35 75 29 91 39 108 70 11 20 33 44 47 53 30 19 97 22 137 7z m-5405 -80
c16 -16 20 -33 20 -84 0 -61 -1 -65 -39 -99 -31 -28 -50 -36 -97 -42 -32 -4
-79 -17 -104 -30 -25 -12 -69 -25 -98 -28 -29 -4 -69 -16 -88 -27 -18 -12 -64
-26 -101 -31 -38 -5 -88 -18 -113 -28 -25 -10 -79 -24 -120 -31 -41 -7 -96
-21 -122 -31 -26 -10 -77 -23 -114 -30 -37 -6 -91 -22 -118 -35 -60 -28 -83
-30 -108 -7 -21 19 -25 97 -6 137 10 24 57 46 99 46 8 0 30 11 48 24 19 14 54
27 84 31 29 4 76 18 106 31 29 13 65 24 79 24 13 0 63 13 111 29 47 16 110 34
139 40 29 6 69 19 90 30 20 10 59 22 87 26 27 4 68 17 90 30 22 13 61 26 87
29 26 4 57 16 70 26 31 26 92 26 118 0z m-730 0 c12 -8 12 -10 -3 -16 -22 -8
-50 3 -42 16 8 12 25 13 45 0z m3527 -37 c-3 -10 -5 -4 -5 12 0 17 2 24 5 18
2 -7 2 -21 0 -30z m-3662 -22 c8 -14 -30 -32 -49 -25 -9 3 -16 12 -16 20 0 16
55 20 65 5z m1973 -48 c6 -16 13 -44 14 -63 2 -27 8 -35 28 -40 19 -4 29 -17
40 -50 8 -25 27 -57 43 -72 35 -35 35 -58 2 -58 -18 0 -31 9 -42 28 -9 16 -29
34 -44 39 -23 9 -29 19 -34 57 -4 25 -11 46 -16 46 -23 0 -49 42 -49 78 0 62
39 85 58 35z m-4918 -1 c0 -24 -19 -42 -46 -42 -31 0 -39 18 -18 41 22 25 64
26 64 1z m329 -66 c14 -14 16 -41 15 -184 -1 -160 -12 -231 -33 -218 -5 4 -12
25 -16 49 -16 105 -33 143 -86 190 -44 40 -59 47 -108 52 -84 9 -101 14 -108
31 -9 23 6 32 85 49 40 8 89 24 110 35 44 24 115 22 141 -4z m6298 -54 c8 -57
-3 -91 -31 -98 -22 -5 -23 -10 -22 -81 1 -48 -3 -78 -10 -80 -35 -12 -49 -34
-54 -84 -5 -50 -7 -54 -33 -57 -44 -5 -60 15 -54 67 4 34 12 51 35 70 20 18
33 42 42 76 6 28 23 62 36 76 16 17 28 43 31 70 7 56 31 105 45 91 5 -5 12
-28 15 -50z m-4649 -132 c1 -9 -17 -32 -42 -52 -36 -31 -55 -39 -103 -44 -34
-4 -66 -14 -78 -25 -26 -23 -69 -39 -105 -39 -16 0 -42 -11 -58 -25 -17 -14
-53 -29 -82 -35 -29 -6 -67 -19 -84 -29 -17 -10 -58 -24 -91 -31 -33 -7 -76
-20 -95 -30 -20 -10 -54 -21 -75 -25 -22 -4 -70 -20 -107 -36 -36 -16 -76 -29
-88 -29 -12 0 -41 -12 -65 -26 -43 -25 -153 -48 -180 -37 -17 6 -27 35 -20 55
10 25 96 66 182 87 44 10 94 26 112 35 17 9 57 21 88 27 31 6 68 19 82 30 15
11 51 23 82 28 30 5 71 19 91 30 20 12 62 26 93 31 32 5 76 18 99 29 22 11 68
24 102 30 33 5 78 18 100 29 21 11 66 23 99 27 35 4 70 15 84 26 28 22 54 21
59 -1z m3142 -55 c10 -12 9 -16 -4 -21 -16 -6 -46 11 -46 27 0 15 37 10 50 -6z
m114 -51 c27 -11 18 -34 -13 -34 -32 0 -61 24 -39 33 19 8 34 8 52 1z m181
-65 c17 -16 -14 -34 -56 -33 -43 2 -86 29 -58 38 45 15 94 13 114 -5z m-3425
-39 c24 -24 27 -91 6 -110 -8 -6 -37 -18 -63 -25 -26 -8 -73 -23 -103 -34 -30
-11 -69 -20 -86 -21 -17 0 -51 -11 -76 -24 -25 -13 -75 -29 -112 -34 -37 -6
-81 -20 -99 -30 -18 -11 -59 -23 -92 -27 -33 -4 -80 -16 -103 -26 -24 -10 -83
-26 -130 -34 -48 -8 -110 -24 -137 -34 -28 -11 -88 -25 -132 -32 -94 -14 -113
-7 -113 42 0 26 7 32 68 59 37 17 95 37 130 44 35 8 71 21 81 30 10 9 47 21
82 28 35 6 80 19 99 28 20 10 60 23 90 29 30 5 87 21 125 34 39 14 90 28 115
32 25 4 62 16 83 27 21 10 63 23 93 29 30 6 70 19 88 30 32 19 96 36 144 38
12 1 31 -8 42 -19z m4723 -41 c47 -24 57 -35 57 -63 0 -17 -6 -18 -67 -14 -79
6 -123 24 -123 49 0 19 43 48 73 49 10 0 37 -10 60 -21z m1436 -105 c25 -15
58 -38 72 -51 25 -23 37 -25 185 -33 155 -9 161 -9 231 15 l72 25 44 -23 c24
-13 53 -27 63 -31 11 -3 30 -13 44 -21 16 -9 52 -15 98 -15 63 0 80 4 130 32
31 18 67 43 80 56 28 30 62 26 151 -19 l61 -31 0 -132 c0 -91 -4 -137 -12
-147 -31 -37 -96 -68 -163 -79 -38 -6 -83 -19 -100 -30 -16 -10 -58 -26 -92
-34 -35 -9 -77 -25 -95 -35 -18 -11 -53 -22 -78 -26 -25 -4 -56 -15 -70 -25
-14 -9 -42 -23 -62 -29 -21 -7 -40 -16 -42 -20 -19 -31 78 -59 230 -68 95 -5
116 -3 145 12 19 10 50 26 70 36 19 10 41 25 49 33 7 9 23 16 36 16 30 0 150
-66 158 -86 3 -9 1 -46 -5 -82 -5 -37 -7 -88 -4 -113 9 -65 -20 -123 -71 -139
-48 -16 -132 -6 -164 20 -40 32 -60 38 -182 51 -105 11 -120 11 -173 -5 -69
-22 -139 -17 -199 16 -37 20 -58 23 -204 26 l-163 4 -40 -27 c-55 -39 -107
-31 -162 23 l-40 40 16 84 c10 46 17 113 17 150 0 72 13 97 53 99 12 1 78 2
147 3 117 1 128 3 170 28 25 14 71 31 103 37 32 6 69 19 83 30 14 11 38 22 54
26 37 8 82 50 78 73 -4 21 -77 29 -285 31 -137 1 -142 0 -171 -24 -47 -40 -96
-56 -144 -49 -81 13 -78 5 -78 190 0 94 4 174 10 185 10 18 74 58 94 59 5 0
30 -12 55 -26z m-1325 -20 c23 -22 21 -74 -2 -74 -24 0 -42 19 -42 45 0 17 16
45 26 45 2 0 10 -7 18 -16z m74 -168 c-4 -39 -29 -41 -42 -4 -7 19 -6 31 4 43
19 23 42 0 38 -39z m-4624 -152 c9 -3 16 -12 16 -19 0 -17 -23 -25 -75 -25
-24 0 -50 3 -59 6 -19 7 -21 30 -3 37 18 8 103 8 121 1z m-209 -58 c16 -11 17
-17 7 -29 -7 -8 -24 -18 -38 -21 -26 -7 -114 -88 -114 -106 0 -5 -16 -21 -36
-36 -31 -24 -52 -30 -145 -40 -89 -9 -114 -15 -133 -33 -18 -17 -43 -24 -107
-31 -46 -5 -105 -18 -132 -30 -55 -25 -120 -24 -125 1 -3 18 82 109 102 109 7
0 26 10 41 22 25 19 32 20 71 10 72 -19 103 -16 114 13 8 22 15 25 60 25 49 0
114 26 180 71 14 9 44 22 68 28 24 7 64 23 89 36 53 29 72 31 98 11z m4967
-143 c9 -10 18 -27 22 -38 3 -11 19 -28 35 -37 52 -29 56 -138 7 -138 -35 0
-56 26 -56 67 0 26 -7 41 -30 61 -31 28 -37 50 -20 83 13 24 23 24 42 2z
m-3202 -105 c0 -30 -10 -44 -35 -52 -20 -6 -21 -12 -17 -101 6 -128 -2 -165
-33 -165 -40 0 -55 34 -55 130 0 89 15 130 46 130 13 0 24 17 38 63 3 10 15
17 31 17 19 0 25 -5 25 -22z m2594 -171 c-2 -135 -10 -165 -40 -136 -12 12
-15 41 -16 130 -1 63 2 121 6 128 4 6 18 11 29 9 21 -3 22 -7 21 -131z m736
-13 c0 -8 -4 -14 -10 -14 -5 0 -10 9 -10 21 0 11 5 17 10 14 6 -3 10 -13 10
-21z m-4107 -165 c23 -12 63 -28 89 -35 26 -8 50 -19 53 -24 4 -6 24 -19 45
-30 47 -24 53 -30 197 -170 62 -60 120 -122 130 -137 9 -16 27 -39 40 -53 12
-14 36 -40 53 -59 17 -18 37 -46 46 -62 8 -16 26 -36 39 -45 14 -9 28 -27 31
-39 3 -13 17 -33 30 -46 13 -12 29 -40 34 -61 6 -21 22 -49 35 -62 16 -16 22
-31 18 -45 -8 -30 -31 -26 -51 9 -9 17 -27 33 -40 36 -12 4 -29 19 -37 34 -8
16 -24 31 -35 35 -11 4 -28 21 -36 38 -9 18 -31 48 -48 68 -41 47 -86 102
-136 164 -22 28 -45 55 -51 60 -5 6 -18 18 -27 28 -109 116 -215 217 -234 222
-13 4 -34 18 -48 31 -14 12 -45 27 -70 33 -25 6 -63 19 -85 31 -35 18 -58 20
-233 20 -181 0 -197 -1 -229 -21 -26 -16 -60 -24 -136 -30 -77 -6 -113 -13
-148 -32 -33 -17 -70 -26 -132 -30 -61 -5 -99 -14 -130 -30 -34 -18 -68 -26
-146 -31 -76 -5 -110 -12 -137 -28 -30 -18 -52 -21 -126 -21 -90 1 -123 12
-101 34 15 15 80 28 142 29 45 0 60 5 82 26 22 21 44 28 121 39 52 7 110 21
131 33 23 12 68 23 120 27 45 4 104 16 131 27 26 10 96 23 155 29 68 7 122 18
151 32 56 26 178 37 363 32 119 -3 145 -7 180 -26z m767 2 c16 -30 12 -41 -14
-41 -23 0 -36 16 -36 46 0 21 38 17 50 -5z m2658 -20 c3 -8 -1 -12 -9 -9 -7 2
-15 10 -17 17 -3 8 1 12 9 9 7 -2 15 -10 17 -17z m-5098 -281 c28 -19 -10 -30
-102 -30 -70 0 -88 3 -88 14 0 8 12 17 28 19 54 8 147 6 162 -3z m5805 -98 c0
-40 -6 -67 -19 -87 -18 -27 -19 -28 -32 -10 -20 27 -18 135 2 164 15 21 18 21
32 7 11 -11 16 -35 17 -74z m-6102 39 c20 -20 -12 -35 -83 -39 -47 -3 -75 0
-85 8 -18 15 -5 36 28 44 34 7 129 -2 140 -13z m-228 -52 c14 -14 -7 -42 -36
-50 -37 -11 -105 -10 -134 1 -36 14 -29 42 15 57 38 14 138 8 155 -8z m1959
-11 c12 -13 33 -32 49 -41 15 -10 27 -26 27 -37 0 -27 -48 -27 -83 0 -36 29
-111 27 -179 -5 -67 -31 -78 -31 -78 1 0 19 8 28 34 39 18 8 36 21 40 30 18
48 153 58 190 13z m-4083 -65 c18 -15 41 -48 52 -73 11 -25 36 -64 55 -87 31
-39 39 -43 79 -43 24 0 74 -7 111 -15 122 -28 165 -74 105 -112 -50 -31 -142
-115 -148 -134 -3 -10 -1 -75 6 -145 10 -106 10 -128 -2 -135 -27 -17 -74 -9
-119 21 -25 16 -52 30 -61 30 -9 0 -28 9 -42 20 -42 33 -79 35 -128 7 -24 -13
-57 -28 -73 -31 -16 -4 -43 -18 -59 -32 -30 -25 -75 -31 -108 -14 -23 13 -24
31 -5 69 8 15 20 65 26 112 l12 84 -73 67 c-41 37 -86 72 -101 79 -32 13 -38
26 -27 56 10 27 103 58 220 72 44 6 84 13 89 16 5 3 15 24 22 46 6 23 22 48
34 56 13 8 28 31 35 51 22 71 47 79 100 35z m1854 -3 c0 -18 -92 -27 -109 -10
-17 17 13 31 64 28 32 -2 45 -7 45 -18z m7861 -5 c18 -14 38 -41 45 -62 6 -21
25 -54 41 -73 16 -19 33 -41 39 -47 5 -7 30 -13 54 -13 92 0 237 -45 250 -78
4 -11 -2 -24 -19 -37 -88 -68 -157 -129 -166 -146 -8 -14 -6 -53 5 -140 13
-94 14 -123 5 -134 -20 -24 -71 -17 -119 15 -24 17 -51 30 -61 30 -9 0 -31 11
-50 25 -41 30 -83 32 -117 5 -14 -11 -44 -25 -67 -31 -22 -6 -53 -22 -69 -35
-32 -27 -74 -31 -102 -10 -17 12 -18 18 -7 67 7 30 15 88 18 130 l7 75 -59 53
c-33 29 -78 64 -101 78 -49 28 -55 55 -20 78 33 21 172 55 229 55 50 0 88 24
88 55 0 8 14 30 30 48 17 19 30 40 30 46 0 7 7 25 15 41 20 38 56 40 101 5z
m-6378 -47 c9 -8 10 -14 0 -25 -9 -12 -27 -13 -82 -8 -97 10 -115 28 -44 45
38 10 107 3 126 -12z m450 -40 c-3 -35 -22 -48 -32 -23 -7 19 10 55 25 55 6 0
9 -14 7 -32z m-348 -48 c15 -28 1 -49 -17 -25 -15 22 -17 45 -3 45 5 0 14 -9
20 -20z m2468 -7 c18 -46 22 -80 31 -263 7 -121 16 -195 29 -240 11 -36 23
-91 26 -122 5 -50 3 -61 -14 -78 -23 -23 -101 -28 -118 -7 -16 19 -26 462 -13
584 10 96 26 153 41 153 4 0 12 -12 18 -27z m962 -68 c6 -8 10 -22 8 -32 -5
-25 -51 -25 -56 0 -8 42 23 63 48 32z m1020 -6 c14 -24 9 -32 -14 -23 -17 7
-23 44 -6 44 5 0 14 -9 20 -21z m-752 -51 c22 -22 14 -48 -13 -48 -30 0 -43
24 -25 45 15 18 22 19 38 3z m834 -6 c7 -11 25 -25 40 -33 26 -14 102 -77 182
-152 59 -55 82 -76 166 -147 41 -35 89 -78 107 -95 68 -65 89 -83 111 -94 29
-15 29 -56 1 -72 -13 -7 -39 -8 -66 -4 -38 5 -55 16 -105 66 -32 32 -63 59
-68 59 -5 0 -16 10 -25 23 -18 26 -134 155 -187 209 -21 20 -38 42 -38 47 0 5
-9 13 -20 16 -11 4 -27 20 -35 36 -9 16 -22 29 -31 29 -8 0 -23 13 -32 29 -9
17 -27 35 -39 40 -33 15 -32 61 1 61 14 0 31 -8 38 -18z m-6285 -18 c6 -17
-42 -26 -73 -13 -23 8 -25 12 -14 20 20 12 82 7 87 -7z m4497 -6 c8 -13 19
-59 25 -102 6 -53 16 -88 30 -107 22 -29 41 -106 41 -161 0 -16 11 -58 26 -93
29 -75 24 -97 -30 -115 -46 -15 -93 8 -101 48 -3 15 -12 50 -21 79 -31 109
-47 410 -24 454 14 25 36 24 54 -3z m469 -25 c-3 -7 -9 -13 -14 -13 -11 0 -12
44 -2 54 9 9 22 -25 16 -41z m757 34 c0 -8 -3 -17 -7 -20 -9 -9 -34 13 -27 24
8 14 34 11 34 -4z m-476 -53 c8 -20 -1 -34 -20 -34 -8 0 -14 10 -14 25 0 28
24 34 34 9z m273 -38 c-4 -9 -11 -16 -17 -16 -15 0 -24 26 -16 47 6 15 8 15
23 1 9 -9 13 -24 10 -32z m268 24 c11 -17 -5 -32 -21 -19 -7 6 -11 15 -8 20 7
12 21 11 29 -1z m283 -19 c6 -17 24 -37 41 -46 17 -8 38 -29 46 -45 9 -17 22
-30 30 -30 8 0 21 -13 30 -30 9 -16 20 -30 25 -30 7 0 117 -107 225 -220 65
-68 89 -130 51 -130 -45 0 -140 70 -178 131 -9 15 -26 30 -37 34 -11 3 -23 16
-27 28 -4 12 -20 37 -35 55 -16 18 -29 39 -29 47 0 8 -13 24 -29 36 -16 12
-32 31 -35 43 -3 11 -19 29 -36 38 -17 10 -30 25 -30 36 0 10 -13 33 -30 50
-34 36 -39 62 -11 62 12 0 23 -11 29 -29z m-1303 -34 c8 -13 19 -45 24 -71 6
-33 17 -55 35 -70 19 -15 29 -36 37 -80 6 -32 22 -76 35 -96 30 -45 44 -141
24 -165 -21 -25 -45 -17 -93 30 -47 46 -50 53 -62 168 -4 32 -18 79 -31 105
-51 99 -23 261 31 179z m288 -46 c10 -29 28 -62 42 -72 13 -11 31 -41 40 -68
9 -27 22 -52 30 -54 7 -3 22 -31 34 -62 12 -30 27 -66 35 -78 8 -12 22 -39 31
-59 14 -36 14 -39 -6 -59 -43 -43 -132 20 -148 105 -5 26 -18 57 -29 69 -12
13 -28 54 -37 92 -9 38 -25 82 -37 97 -25 36 -34 98 -18 127 19 36 43 21 63
-38z m271 -33 c7 -37 14 -48 33 -53 16 -4 30 -19 40 -43 8 -20 28 -47 43 -60
16 -12 31 -35 35 -51 3 -16 19 -43 35 -61 15 -17 31 -44 35 -58 4 -15 15 -36
26 -48 30 -32 15 -54 -36 -54 -49 0 -70 16 -80 59 -3 16 -19 40 -35 54 -18 16
-32 41 -36 64 -3 21 -17 49 -30 63 -13 15 -28 47 -33 75 -5 27 -16 54 -23 59
-44 33 -47 110 -5 104 17 -2 24 -13 31 -50z m262 27 c20 -30 15 -60 -11 -60
-22 0 -42 43 -32 69 9 23 24 20 43 -9z m272 13 c19 -19 15 -48 -7 -48 -24 0
-45 25 -37 45 7 18 27 20 44 3z m-3736 -9 c19 -10 20 -17 13 -102 -3 -51 -11
-106 -16 -124 -13 -41 -39 -51 -61 -23 -14 18 -18 42 -18 119 0 127 22 162 82
130z m1413 -9 c0 -8 -8 -16 -17 -18 -13 -2 -18 3 -18 18 0 15 5 20 18 18 9 -2
17 -10 17 -18z m-3695 -60 c0 -5 -4 -10 -10 -10 -5 0 -10 5 -10 10 0 6 5 10
10 10 6 0 10 -4 10 -10z m6094 -30 c9 -22 21 -40 27 -40 6 0 28 -18 50 -40 22
-22 44 -40 49 -40 5 0 17 -15 26 -32 20 -40 58 -89 102 -132 17 -18 32 -39 32
-47 0 -20 -20 -39 -42 -39 -22 0 -108 77 -108 96 0 7 -13 20 -29 29 -18 9 -34
28 -40 48 -7 19 -22 44 -35 56 -14 13 -27 35 -31 49 -3 14 -17 36 -31 49 -23
21 -32 62 -17 76 15 16 32 4 47 -33z m-286 4 c12 -8 22 -21 22 -29 0 -7 14
-23 30 -35 17 -12 40 -40 51 -61 11 -22 26 -42 34 -46 8 -3 24 -25 34 -49 11
-24 24 -44 28 -44 13 0 40 -50 48 -87 6 -32 6 -33 -29 -33 -24 0 -42 7 -53 20
-10 12 -32 35 -50 52 -18 17 -35 44 -38 59 -4 16 -18 38 -31 48 -14 11 -30 36
-35 55 -5 20 -21 49 -34 65 -17 19 -25 41 -25 65 0 40 12 45 48 20z m-2750
-102 c4 -77 -24 -265 -47 -311 -11 -21 -28 -60 -39 -87 -25 -67 -86 -145 -132
-169 -20 -11 -52 -28 -70 -38 -26 -15 -45 -17 -104 -13 -39 3 -84 5 -101 5
-157 -7 -176 -5 -200 24 -12 16 -33 34 -46 41 -13 6 -25 19 -27 29 -5 24 32
22 73 -3 42 -26 162 -32 179 -8 15 20 93 59 135 67 29 5 35 12 47 50 7 24 25
56 39 71 15 15 31 47 36 71 7 29 22 54 45 75 25 23 34 40 34 63 0 40 21 91 49
115 11 11 21 24 21 29 0 26 35 48 69 45 36 -3 36 -3 39 -56z m-933 -64 c8 -18
19 -58 25 -89 6 -31 22 -71 35 -89 13 -18 27 -53 31 -78 4 -28 15 -52 30 -65
31 -27 34 -87 5 -87 -10 0 -26 11 -35 25 -20 31 -47 32 -72 4 -10 -12 -48 -44
-84 -71 l-65 -50 -165 6 c-118 5 -169 11 -179 21 -23 22 -3 35 57 35 81 0 121
14 154 55 21 25 37 35 58 35 27 0 29 2 27 41 -3 56 22 73 57 40 43 -41 61 0
31 72 -19 46 -19 83 0 138 33 93 65 113 90 57z m2930 -274 c113 -29 150 -33
336 -33 128 -1 236 -8 350 -22 236 -31 494 -32 609 -2 47 12 128 24 181 28 63
4 121 15 165 30 108 38 274 32 274 -9 0 -22 -29 -35 -103 -45 -36 -5 -76 -16
-90 -25 -13 -9 -60 -23 -103 -31 -43 -8 -99 -24 -124 -34 -25 -11 -67 -22 -95
-26 -27 -4 -75 -19 -105 -34 -51 -24 -64 -26 -185 -25 -102 0 -147 5 -210 23
-44 12 -132 27 -195 32 -123 9 -139 12 -240 34 -36 8 -143 22 -238 30 -146 12
-180 18 -210 37 -31 19 -54 22 -183 27 -149 6 -188 16 -162 42 32 32 212 33
328 3z m2412 -33 c44 -9 75 -29 155 -104 42 -39 53 -56 64 -105 8 -31 12 -73
9 -92 -12 -74 15 -101 117 -120 27 -5 59 -17 74 -26 35 -23 107 -24 131 -1 31
27 99 23 128 -9 31 -34 38 -57 30 -100 -4 -22 -16 -40 -33 -51 -15 -10 -31
-23 -35 -30 -8 -13 -72 -92 -103 -127 -12 -13 -25 -17 -49 -13 -47 8 -144 73
-151 101 -10 40 -36 56 -118 71 -100 19 -112 19 -135 -4 -27 -27 -17 -58 38
-110 45 -44 47 -45 124 -49 75 -4 79 -5 98 -36 15 -23 19 -43 16 -78 -4 -42
-10 -53 -58 -97 -66 -61 -74 -69 -102 -104 -34 -42 -86 -47 -137 -12 -22 15
-42 37 -45 49 -2 12 -7 38 -10 60 -9 57 -68 106 -191 159 -71 31 -81 39 -101
79 -23 46 -70 90 -163 150 -47 30 -67 37 -135 42 -44 4 -84 11 -91 16 -6 6
-17 28 -24 50 -12 35 -11 45 4 79 10 21 29 44 42 50 13 6 24 15 24 21 0 15
197 208 241 235 20 14 40 29 43 34 4 5 21 13 39 16 17 4 48 17 67 28 51 32
156 44 237 28z m-7964 -134 c23 -19 53 -40 67 -47 14 -7 32 -20 40 -30 8 -10
54 -52 102 -93 148 -126 174 -160 198 -263 12 -49 19 -102 16 -119 -14 -76
-38 -141 -60 -164 -13 -14 -31 -40 -40 -58 -9 -18 -27 -43 -41 -57 -17 -17
-25 -36 -25 -59 0 -42 -16 -56 -67 -63 -21 -3 -65 -18 -98 -34 -173 -83 -291
-107 -432 -90 -76 10 -174 54 -242 110 -39 32 -38 31 -114 111 -58 61 -150
132 -185 143 -28 9 -45 41 -36 69 4 12 25 43 48 69 39 45 44 48 91 48 28 0 66
5 86 10 45 13 153 114 173 162 19 44 32 55 85 67 44 10 61 22 145 105 47 46
50 52 55 115 6 61 8 67 36 80 95 46 129 44 198 -12z m7100 -523 c20 -26 37
-57 37 -69 0 -41 28 -90 72 -123 74 -56 131 -90 175 -101 37 -10 103 -67 103
-90 0 -9 77 -71 142 -112 35 -23 64 -32 119 -38 45 -5 76 -13 83 -22 6 -9 23
-24 39 -33 26 -18 39 -66 17 -66 -5 0 -27 -16 -49 -35 -21 -19 -43 -35 -48
-35 -6 0 -16 -6 -22 -14 -21 -25 -149 -96 -173 -96 -33 0 -108 83 -108 121 0
22 -9 36 -42 59 -48 35 -59 37 -82 11 -10 -11 -28 -22 -40 -25 -33 -8 -62 -76
-46 -107 20 -38 42 -59 61 -59 30 0 89 -59 89 -89 0 -62 -17 -79 -149 -150
-14 -8 -41 -27 -59 -43 -25 -21 -43 -28 -75 -28 -71 0 -81 14 -74 100 8 94 -6
167 -39 201 -14 14 -28 39 -33 55 -5 20 -24 40 -58 62 -50 33 -51 34 -57 95
-13 113 -21 131 -93 196 -41 37 -78 62 -99 65 -31 6 -104 73 -104 96 0 14 70
84 100 100 13 7 33 24 43 37 10 12 24 23 31 23 7 0 25 14 41 30 16 17 32 30
37 30 5 0 34 17 66 39 119 80 140 82 195 15z m-6368 -64 c14 -5 51 -29 82 -52
32 -24 72 -52 89 -63 119 -75 117 -73 111 -121 -6 -60 -29 -84 -81 -84 -65 0
-153 -48 -212 -117 -28 -32 -54 -68 -58 -79 -3 -12 -30 -44 -59 -71 -194 -185
-201 -195 -207 -304 -7 -106 -16 -119 -82 -119 -39 0 -57 6 -82 26 -35 29
-175 121 -219 145 -39 21 -48 40 -34 69 20 39 61 61 125 69 38 4 70 15 84 27
48 40 117 116 123 134 3 10 12 21 20 24 8 3 23 23 35 46 11 22 38 51 59 64 57
36 146 146 166 205 15 46 15 52 0 75 -17 25 -13 66 6 66 5 0 25 16 45 35 37
37 48 41 89 25z m491 -338 c28 -10 63 -27 78 -39 15 -12 40 -25 57 -28 53 -12
63 -42 51 -148 -38 -319 -45 -408 -35 -418 19 -19 63 -1 81 33 9 17 29 45 43
62 37 43 63 137 48 170 -10 20 -8 30 9 58 11 18 34 46 51 62 27 26 34 28 76
22 25 -4 74 -22 108 -40 34 -18 74 -36 90 -40 38 -9 67 -41 67 -74 0 -41 -57
-110 -100 -122 -34 -9 -74 -45 -133 -118 -22 -28 -27 -43 -27 -93 0 -53 -3
-60 -27 -76 -46 -28 -154 -145 -170 -183 -8 -19 -25 -46 -38 -60 -17 -18 -24
-41 -27 -84 -4 -46 -10 -63 -28 -78 -32 -26 -97 -24 -140 5 -19 13 -57 31 -85
40 -106 36 -133 102 -72 175 l34 40 7 169 c7 167 7 168 -16 186 -22 18 -23 18
-36 0 -50 -71 -64 -93 -83 -133 -11 -25 -29 -53 -40 -63 -17 -16 -20 -30 -18
-97 2 -66 0 -83 -17 -101 -16 -18 -26 -20 -68 -15 -28 3 -82 21 -120 40 -39
18 -83 37 -98 40 -33 7 -56 30 -64 62 -14 56 18 90 119 128 39 15 56 29 85 73
61 91 72 116 72 166 0 53 26 90 78 108 41 14 110 100 121 150 5 23 7 63 4 89
-7 57 5 81 59 120 48 35 39 34 104 12z m5185 -91 c78 -52 124 -109 147 -184
12 -37 22 -79 22 -94 0 -44 38 -92 94 -118 85 -39 131 -91 156 -176 22 -72 22
-75 5 -146 -14 -61 -24 -80 -60 -118 -25 -25 -48 -45 -53 -45 -4 0 -21 -13
-37 -30 -16 -16 -36 -30 -45 -30 -10 0 -42 -13 -73 -30 -31 -16 -65 -30 -75
-30 -11 0 -39 -11 -63 -23 -24 -13 -62 -30 -84 -37 -22 -7 -53 -23 -68 -34
-22 -16 -43 -21 -90 -21 l-61 0 -24 42 c-22 40 -22 44 -7 72 24 47 20 97 -11
124 -14 12 -33 39 -41 60 -10 23 -27 44 -47 54 -38 20 -55 41 -56 69 0 36 -46
139 -73 167 -15 14 -27 32 -27 40 0 21 -70 83 -126 110 -63 32 -75 47 -81 101
-5 38 -2 46 23 71 16 15 49 36 74 47 25 12 49 27 53 34 4 7 31 20 60 29 29 8
70 24 92 35 164 80 192 87 331 89 96 1 103 0 145 -28z m-4171 -326 c47 -9 99
-25 116 -36 18 -11 66 -24 110 -29 50 -6 89 -17 106 -30 18 -13 55 -23 111
-29 101 -12 149 -30 172 -65 27 -40 5 -142 -47 -223 -39 -61 -47 -68 -78 -63
-25 3 -71 52 -91 95 -10 23 -37 56 -60 75 -36 28 -54 35 -126 44 -111 13 -130
4 -157 -80 -19 -61 -19 -62 0 -95 19 -32 24 -34 82 -37 46 -2 74 3 112 19 40
17 53 19 65 9 23 -19 19 -88 -9 -140 -13 -25 -26 -66 -30 -92 -5 -33 -14 -51
-27 -59 -31 -16 -96 -1 -119 28 -10 13 -41 33 -67 43 -84 31 -135 -1 -150 -96
-5 -31 -1 -39 38 -75 58 -54 74 -59 182 -59 82 0 95 3 128 26 44 30 112 42
134 24 22 -19 18 -53 -15 -123 -16 -35 -30 -70 -30 -78 0 -8 -5 -31 -10 -51
-9 -32 -16 -39 -52 -48 -52 -15 -130 -4 -163 22 -14 11 -54 24 -91 30 -36 5
-89 21 -118 34 -28 13 -65 24 -83 24 -18 0 -67 11 -110 24 -43 14 -105 29
-137 35 -65 12 -90 29 -104 71 -13 35 14 83 59 108 65 35 87 61 99 115 7 28
22 65 33 80 19 28 19 32 4 85 l-15 55 49 52 c43 45 50 60 64 125 14 68 14 78
-1 128 -16 49 -16 58 -2 96 19 52 70 90 113 82 17 -3 68 -12 115 -21z m2683
-170 c46 -39 47 -40 47 -98 0 -73 -10 -91 -62 -118 l-41 -21 -68 32 -68 33
-48 -20 c-35 -15 -54 -32 -70 -61 l-23 -39 23 -34 c23 -34 24 -34 98 -34 40 0
103 7 139 14 54 12 71 21 101 54 33 35 42 39 111 49 70 10 81 9 134 -12 33
-12 69 -26 82 -31 24 -9 38 -38 48 -99 6 -36 3 -42 -36 -81 l-43 -42 6 -63 c4
-35 13 -77 22 -95 9 -17 24 -72 34 -123 10 -50 24 -108 31 -128 11 -29 11 -42
0 -67 -17 -41 -30 -47 -133 -62 l-88 -12 -29 28 c-30 29 -31 29 -78 16 -92
-26 -158 -33 -262 -26 -84 5 -113 11 -145 29 -22 13 -54 27 -71 30 -49 11
-112 101 -130 185 -18 84 -17 133 1 201 21 79 19 89 -26 131 -68 63 -81 163
-38 294 13 37 136 145 186 162 20 7 42 18 49 24 26 21 72 28 184 26 l115 -2
48 -40z m-1579 -40 c55 -8 133 -20 171 -25 66 -10 215 -72 224 -93 2 -5 18
-23 36 -41 42 -42 49 -76 40 -194 l-7 -96 -55 -57 c-35 -37 -72 -65 -100 -75
l-45 -18 4 -57 c3 -42 11 -64 30 -87 14 -17 29 -47 32 -67 6 -31 13 -39 60
-59 44 -20 56 -30 65 -59 16 -47 -6 -102 -46 -118 -17 -7 -85 -9 -175 -7 -179
4 -189 10 -196 107 -4 54 -2 62 22 84 32 30 32 36 1 95 -14 26 -25 57 -25 69
0 34 -27 53 -76 53 -39 0 -47 -4 -63 -31 -42 -69 -35 -117 25 -188 l26 -32
-18 -52 c-26 -70 -50 -79 -204 -71 -189 8 -230 27 -230 106 0 31 5 40 28 52
15 8 40 31 56 52 26 33 30 47 34 121 4 68 1 90 -14 118 -18 34 -18 35 6 82 21
41 25 65 28 173 l4 125 -31 29 c-45 43 -42 78 13 132 l43 44 118 0 c65 0 163
-7 219 -15z"/>
<path d="M19792 14234 c-12 -8 -44 -22 -72 -30 -27 -8 -52 -19 -55 -25 -4 -5
-23 -20 -43 -33 -57 -37 -168 -147 -187 -186 -10 -19 -26 -44 -36 -56 -12 -12
-25 -55 -35 -109 -14 -74 -15 -103 -5 -181 13 -105 18 -124 36 -124 10 0 14
35 17 138 3 131 5 141 30 179 15 23 34 57 42 78 19 45 54 89 126 161 94 92
104 102 127 108 12 4 38 20 59 37 20 16 48 32 61 35 12 4 23 10 23 15 0 15
-64 10 -88 -7z"/>
<path d="M21160 13940 c0 -5 9 -10 19 -10 11 0 23 5 26 10 4 6 -5 10 -19 10
-14 0 -26 -4 -26 -10z"/>
<path d="M21050 13903 c-8 -3 -30 -19 -48 -34 -18 -16 -37 -29 -42 -29 -17 0
-89 -73 -120 -120 -43 -67 -54 -133 -40 -234 21 -148 42 -144 51 9 5 90 9 109
32 144 15 22 27 46 27 53 0 19 150 158 187 173 44 19 44 45 1 44 -18 0 -40 -3
-48 -6z"/>
<path d="M18855 13245 c-96 -48 -158 -120 -195 -231 -39 -113 -38 -148 1 -207
17 -26 34 -49 38 -52 5 -2 6 28 3 68 -3 58 1 88 22 159 24 79 32 92 92 152 36
37 79 73 95 81 65 34 11 62 -56 30z"/>
<path d="M24062 13634 c-56 -56 -18 -76 43 -23 28 25 33 34 24 45 -16 20 -30
16 -67 -22z"/>
<path d="M23535 12890 c-8 -12 20 -24 35 -15 6 3 8 11 5 16 -8 12 -32 12 -40
-1z"/>
<path d="M16970 13355 c-10 -12 -5 -18 36 -37 27 -12 52 -24 57 -26 13 -7 7
33 -9 56 -18 26 -65 30 -84 7z"/>
<path d="M24967 12718 c-24 -7 -47 -23 -64 -45 l-27 -35 20 -56 c17 -52 24
-59 79 -91 79 -45 118 -46 156 -3 31 35 37 78 19 127 -11 30 -87 105 -106 105
-7 0 -18 2 -26 4 -7 2 -30 -1 -51 -6z"/>
<path d="M25235 12370 c-16 -11 -37 -20 -45 -20 -49 0 -120 -36 -120 -60 0
-26 110 -35 181 -14 18 5 45 86 34 103 -9 15 -15 14 -50 -9z"/>
<path d="M16366 12111 c-7 -11 18 -33 27 -24 4 3 7 12 7 20 0 15 -26 18 -34 4z"/>
<path d="M17602 7673 c2 -23 8 -29 36 -31 26 -3 32 0 32 15 0 26 -19 43 -48
43 -20 0 -23 -4 -20 -27z"/>
<path d="M20400 11642 c0 -44 11 -92 22 -92 14 0 5 113 -9 118 -9 2 -13 -7
-13 -26z"/>
<path d="M20142 11545 c0 -16 2 -22 5 -12 2 9 2 23 0 30 -3 6 -5 -1 -5 -18z"/>
<path d="M19170 11046 c0 -2 7 -6 15 -10 8 -3 15 -1 15 4 0 6 -7 10 -15 10 -8
0 -15 -2 -15 -4z"/>
<path d="M19012 10983 c2 -10 14 -19 26 -21 19 -3 23 1 20 15 -2 10 -14 19
-26 21 -19 3 -23 -1 -20 -15z"/>
<path d="M25595 11473 c-73 -5 -92 -11 -115 -35 -28 -30 -26 -40 20 -77 l41
-33 72 38 c40 21 91 47 115 58 62 30 53 51 -23 52 -33 0 -82 -1 -110 -3z"/>
<path d="M15630 11098 c0 -21 48 -62 100 -87 25 -12 56 -28 70 -36 33 -19 95
-19 114 1 18 17 21 56 6 84 -15 28 -65 41 -182 47 -91 5 -108 4 -108 -9z"/>
<path d="M24980 7363 c1 -29 54 -98 75 -98 16 0 21 8 23 37 3 33 -1 40 -30 58
-41 25 -68 26 -68 3z"/>
<path d="M24743 7251 c-35 -22 -63 -67 -63 -102 0 -29 65 -89 96 -89 41 0 99
46 118 92 15 39 15 44 -2 77 -16 33 -21 36 -67 39 -36 2 -59 -3 -82 -17z"/>
<path d="M16906 7045 c-48 -29 -123 -113 -132 -149 -7 -29 -23 -40 -72 -50
-39 -7 -74 -32 -143 -100 -54 -54 -60 -77 -28 -104 12 -9 33 -27 47 -39 32
-29 76 -38 192 -37 114 0 150 15 180 75 21 40 51 59 94 59 32 0 97 81 103 130
5 33 0 48 -30 92 -45 67 -92 113 -137 132 -33 13 -38 13 -74 -9z"/>
<path d="M16380 6626 c0 -9 5 -16 10 -16 6 0 10 4 10 9 0 6 -4 13 -10 16 -5 3
-10 -1 -10 -9z"/>
<path d="M24020 6501 c0 -26 8 -49 23 -68 13 -15 29 -42 36 -60 20 -49 102
-59 116 -14 7 22 -10 71 -24 71 -10 0 -47 31 -101 83 -38 37 -50 34 -50 -12z"/>
<path d="M23142 6145 c-34 -6 -68 -17 -75 -24 -7 -7 -12 -34 -12 -60 0 -43 4
-52 47 -94 51 -52 64 -56 99 -28 13 10 42 27 64 37 37 18 40 23 43 63 6 82 -5
98 -78 113 -14 3 -53 0 -88 -7z"/>
<path d="M23322 5788 c-38 -15 -54 -27 -58 -45 -10 -40 4 -81 43 -128 43 -51
82 -59 125 -25 14 11 37 24 52 30 37 14 62 70 50 111 -20 71 -115 97 -212 57z"/>
<path d="M21835 5320 c-97 -14 -155 -66 -155 -137 0 -62 14 -79 88 -108 l69
-27 50 22 c28 12 65 36 82 54 30 31 32 37 29 96 -3 54 -7 66 -28 81 -32 24
-71 29 -135 19z"/>
<path d="M20312 5603 c-31 -6 -52 -41 -54 -90 -2 -51 5 -60 50 -73 47 -13 95
-12 151 3 38 10 46 17 53 44 10 39 -3 77 -34 97 -24 15 -127 28 -166 19z"/>
<path d="M20667 5499 c-25 -38 -49 -100 -43 -114 6 -16 75 -3 87 17 15 23 10
75 -10 99 l-18 23 -16 -25z"/>
<path d="M22585 14900 c-3 -5 1 -10 9 -10 9 0 16 5 16 10 0 6 -4 10 -9 10 -6
0 -13 -4 -16 -10z"/>
<path d="M23470 14600 c0 -5 7 -10 15 -10 8 0 15 5 15 10 0 6 -7 10 -15 10 -8
0 -15 -4 -15 -10z"/>
<path d="M23615 14540 c3 -5 8 -10 11 -10 2 0 4 5 4 10 0 6 -5 10 -11 10 -5 0
-7 -4 -4 -10z"/>
<path d="M23755 14480 c3 -5 8 -10 11 -10 2 0 4 5 4 10 0 6 -5 10 -11 10 -5 0
-7 -4 -4 -10z"/>
<path d="M24095 14300 c4 -6 11 -8 16 -5 14 9 11 15 -7 15 -8 0 -12 -5 -9 -10z"/>
<path d="M16850 13945 c0 -9 6 -12 15 -9 8 4 15 10 15 15 0 5 -7 9 -15 9 -8 0
-15 -7 -15 -15z"/>
<path d="M24920 13770 c0 -5 5 -10 11 -10 5 0 7 5 4 10 -3 6 -8 10 -11 10 -2
0 -4 -4 -4 -10z"/>
<path d="M25462 13298 c6 -18 28 -21 28 -4 0 9 -7 16 -16 16 -9 0 -14 -5 -12
-12z"/>
<path d="M15890 13114 c0 -9 5 -14 12 -12 18 6 21 28 4 28 -9 0 -16 -7 -16
-16z"/>
<path d="M25945 12760 c3 -5 8 -10 11 -10 2 0 4 5 4 10 0 6 -5 10 -11 10 -5 0
-7 -4 -4 -10z"/>
<path d="M15135 12111 c-3 -5 -1 -12 5 -16 12 -7 30 2 30 16 0 12 -27 12 -35
0z"/>
<path d="M26420 12050 c0 -5 5 -10 10 -10 6 0 10 5 10 10 0 6 -4 10 -10 10 -5
0 -10 -4 -10 -10z"/>
<path d="M15076 11991 c-4 -7 -5 -15 -2 -18 9 -9 19 4 14 18 -4 11 -6 11 -12
0z"/>
<path d="M26490 11930 c0 -5 5 -10 11 -10 5 0 7 5 4 10 -3 6 -8 10 -11 10 -2
0 -4 -4 -4 -10z"/>
<path d="M14940 11689 c0 -5 5 -7 10 -4 6 3 10 8 10 11 0 2 -4 4 -10 4 -5 0
-10 -5 -10 -11z"/>
<path d="M26625 11640 c-7 -12 2 -30 16 -30 12 0 12 27 0 35 -5 3 -12 1 -16
-5z"/>
<path d="M14800 11390 c0 -11 4 -20 9 -20 11 0 22 26 14 34 -12 12 -23 5 -23
-14z"/>
<path d="M26830 11090 c0 -11 5 -20 10 -20 6 0 10 9 10 20 0 11 -4 20 -10 20
-5 0 -10 -9 -10 -20z"/>
<path d="M14665 10921 c-3 -5 -1 -12 5 -16 5 -3 10 1 10 9 0 18 -6 21 -15 7z"/>
<path d="M26900 10795 c0 -8 5 -15 10 -15 6 0 10 7 10 15 0 8 -4 15 -10 15 -5
0 -10 -7 -10 -15z"/>
<path d="M14525 10270 c-9 -14 4 -52 16 -45 12 8 12 55 0 55 -6 0 -13 -5 -16
-10z"/>
<path d="M27037 9804 c-4 -4 -7 -49 -7 -101 0 -76 3 -93 15 -93 8 0 15 6 16
13 5 131 -4 201 -24 181z"/>
<path d="M14524 9176 c-6 -26 1 -46 17 -46 12 0 12 57 -1 65 -5 3 -12 -5 -16
-19z"/>
<path d="M26905 8627 c-4 -10 -5 -21 -1 -24 10 -10 18 4 13 24 -4 17 -4 17
-12 0z"/>
<path d="M14660 8501 c0 -6 5 -13 10 -16 6 -3 10 1 10 9 0 9 -4 16 -10 16 -5
0 -10 -4 -10 -9z"/>
<path d="M26837 8343 c-10 -9 -9 -43 2 -43 5 0 11 6 14 13 6 17 -7 40 -16 30z"/>
<path d="M14794 8029 c-8 -14 11 -33 25 -25 11 7 4 36 -9 36 -5 0 -12 -5 -16
-11z"/>
<path d="M26625 7790 c-8 -13 4 -32 16 -25 12 8 12 35 0 35 -6 0 -13 -4 -16
-10z"/>
<path d="M14940 7720 c0 -5 5 -10 11 -10 5 0 7 5 4 10 -3 6 -8 10 -11 10 -2 0
-4 -4 -4 -10z"/>
<path d="M26497 7493 c-4 -3 -7 -11 -7 -17 0 -6 5 -5 12 2 6 6 9 14 7 17 -3 3
-9 2 -12 -2z"/>
<path d="M15072 7431 c4 -13 18 -16 19 -4 0 4 -5 9 -11 12 -7 2 -11 -2 -8 -8z"/>
<path d="M26355 7249 c-10 -15 3 -25 16 -12 7 7 7 13 1 17 -6 3 -14 1 -17 -5z"/>
<path d="M26285 7140 c-4 -6 -3 -16 3 -22 6 -6 12 -6 17 2 4 6 3 16 -3 22 -6
6 -12 6 -17 -2z"/>
<path d="M26215 7020 c-8 -13 4 -32 16 -25 12 8 12 35 0 35 -6 0 -13 -4 -16
-10z"/>
<path d="M26080 6830 c0 -5 5 -10 10 -10 6 0 10 5 10 10 0 6 -4 10 -10 10 -5
0 -10 -4 -10 -10z"/>
<path d="M25800 6470 c0 -5 7 -10 15 -10 8 0 15 5 15 10 0 6 -7 10 -15 10 -8
0 -15 -4 -15 -10z"/>
<path d="M17540 5050 c0 -5 5 -10 11 -10 5 0 7 5 4 10 -3 6 -8 10 -11 10 -2 0
-4 -4 -4 -10z"/>
<path d="M23340 4750 c0 -5 5 -10 10 -10 6 0 10 5 10 10 0 6 -4 10 -10 10 -5
0 -10 -4 -10 -10z"/>
<path d="M22370 4460 c-12 -8 -12 -10 2 -15 19 -7 38 1 38 16 0 12 -21 11 -40
-1z"/>
<path d="M22100 4400 c-12 -8 -12 -10 2 -15 20 -8 41 2 33 16 -8 11 -16 11
-35 -1z"/>
<path d="M21760 4340 c-12 -8 -11 -10 8 -10 12 0 22 5 22 10 0 13 -11 13 -30
0z"/>
<path d="M20340 4280 c0 -5 17 -10 38 -10 27 0 33 3 22 10 -20 13 -60 13 -60
0z"/>
<path d="M21152 4281 c-9 -5 0 -10 28 -14 45 -6 70 -1 70 14 0 11 -81 12 -98
0z"/>
<path d="M7503 3763 c-27 -10 -11 -23 27 -23 43 0 54 14 18 24 -26 6 -28 6
-45 -1z"/>
<path d="M7785 3750 c3 -5 22 -10 41 -10 19 0 34 5 34 10 0 6 -18 10 -41 10
-24 0 -38 -4 -34 -10z"/>
<path d="M5393 3704 c-7 -3 -13 -10 -13 -15 0 -12 177 -12 185 1 4 6 -17 10
-57 10 -35 0 -72 2 -83 5 -11 2 -26 2 -32 -1z"/>
<path d="M14083 3703 c-38 -7 -26 -23 18 -23 28 0 39 4 37 13 -5 13 -22 17
-55 10z"/>
<path d="M15428 3704 c-5 -4 -8 -11 -8 -16 0 -12 208 -10 215 2 4 6 -19 10
-62 10 -37 0 -84 3 -103 6 -19 3 -38 2 -42 -2z"/>
<path d="M26498 3703 c-27 -2 -48 -8 -48 -14 0 -5 124 -9 315 -9 203 0 315 4
315 10 0 6 -84 10 -232 10 -128 0 -249 2 -268 4 -19 2 -56 1 -82 -1z"/>
<path d="M28697 3703 c-40 -6 -23 -23 24 -23 40 0 52 13 23 24 -9 3 -16 5 -17
5 -1 -1 -14 -4 -30 -6z"/>
<path d="M35173 3704 c-7 -3 -13 -10 -13 -15 0 -12 197 -12 205 1 4 6 -18 10
-58 10 -36 0 -77 2 -93 5 -16 2 -35 2 -41 -1z"/>
<path d="M36099 3700 c-16 -10 -12 -15 19 -24 16 -5 22 -3 22 7 0 19 -23 28
-41 17z"/>
<path d="M3355 3690 c28 -12 133 -12 140 0 4 6 -24 10 -77 9 -56 0 -76 -3 -63
-9z"/>
<path d="M3848 3693 c6 -2 18 -2 25 0 6 3 1 5 -13 5 -14 0 -19 -2 -12 -5z"/>
<path d="M8380 3660 c0 -28 4 -40 14 -40 18 0 30 33 21 60 -12 37 -35 23 -35
-20z"/>
<path d="M8870 3690 c0 -12 87 -12 115 0 14 6 -1 9 -47 9 -39 1 -68 -3 -68 -9z"/>
<path d="M9545 3690 c3 -5 24 -10 46 -10 21 0 39 5 39 10 0 6 -21 10 -46 10
-27 0 -43 -4 -39 -10z"/>
<path d="M11325 3690 c-4 -6 21 -10 69 -10 41 0 78 5 81 10 4 6 -21 10 -69 10
-41 0 -78 -4 -81 -10z"/>
<path d="M12020 3690 c0 -5 18 -10 39 -10 22 0 43 5 46 10 4 6 -12 10 -39 10
-25 0 -46 -4 -46 -10z"/>
<path d="M13440 3690 c0 -5 9 -10 19 -10 11 0 23 5 26 10 4 6 -5 10 -19 10
-14 0 -26 -4 -26 -10z"/>
<path d="M16360 3690 c19 -13 30 -13 30 0 0 6 -10 10 -22 10 -19 0 -20 -2 -8
-10z"/>
<path d="M19110 3690 c0 -13 20 -13 40 0 12 8 9 10 -12 10 -16 0 -28 -4 -28
-10z"/>
<path d="M21898 3693 c7 -3 16 -2 19 1 4 3 -2 6 -13 5 -11 0 -14 -3 -6 -6z"/>
<path d="M26033 3693 c9 -2 23 -2 30 0 6 3 -1 5 -18 5 -16 0 -22 -2 -12 -5z"/>
<path d="M27435 3680 c12 -13 22 -17 28 -11 13 13 -1 31 -25 31 -21 0 -21 -1
-3 -20z"/>
<path d="M28060 3690 c0 -5 9 -10 19 -10 11 0 23 5 26 10 4 6 -5 10 -19 10
-14 0 -26 -4 -26 -10z"/>
<path d="M31320 3690 c20 -13 40 -13 40 0 0 6 -12 10 -27 10 -22 0 -25 -2 -13
-10z"/>
<path d="M34185 3690 c3 -5 15 -10 26 -10 10 0 19 5 19 10 0 6 -12 10 -26 10
-14 0 -23 -4 -19 -10z"/>
<path d="M37010 3690 c0 -5 14 -10 30 -10 17 0 30 5 30 10 0 6 -13 10 -30 10
-16 0 -30 -4 -30 -10z"/>
<path d="M37640 3690 c0 -5 16 -10 36 -10 21 0 33 4 29 10 -3 6 -19 10 -36 10
-16 0 -29 -4 -29 -10z"/>
<path d="M3950 3626 c0 -8 5 -18 10 -21 6 -3 10 1 10 9 0 8 -4 18 -10 21 -5 3
-10 -1 -10 -9z"/>
<path d="M6340 3621 c0 -12 5 -21 10 -21 6 0 10 6 10 14 0 8 -4 18 -10 21 -5
3 -10 -3 -10 -14z"/>
<path d="M7150 3630 c0 -5 4 -10 9 -10 6 0 13 5 16 10 3 6 -1 10 -9 10 -9 0
-16 -4 -16 -10z"/>
<path d="M15345 3629 c-10 -15 4 -61 15 -54 13 8 13 65 1 65 -6 0 -13 -5 -16
-11z"/>
<path d="M25600 3626 c0 -8 5 -18 10 -21 6 -3 10 3 10 14 0 12 -4 21 -10 21
-5 0 -10 -6 -10 -14z"/>
<path d="M34345 3630 c3 -5 8 -10 11 -10 2 0 4 5 4 10 0 6 -5 10 -11 10 -5 0
-7 -4 -4 -10z"/>
<path d="M29075 3580 c-3 -6 1 -13 10 -16 19 -8 30 0 20 15 -8 14 -22 14 -30
1z"/>
<path d="M19030 3561 c0 -26 16 -35 24 -15 10 25 7 34 -9 34 -8 0 -15 -9 -15
-19z"/>
<path d="M20745 3560 c-3 -5 -1 -10 4 -10 6 0 11 5 11 10 0 6 -2 10 -4 10 -3
0 -8 -4 -11 -10z"/>
<path d="M7010 3510 c0 -5 4 -10 9 -10 6 0 13 5 16 10 3 6 -1 10 -9 10 -9 0
-16 -4 -16 -10z"/>
<path d="M17740 3510 c0 -5 5 -10 10 -10 6 0 10 5 10 10 0 6 -4 10 -10 10 -5
0 -10 -4 -10 -10z"/>
<path d="M27717 3513 c-4 -3 -7 -13 -7 -22 1 -13 3 -13 11 2 11 19 8 33 -4 20z"/>
<path d="M15344 3476 c-6 -17 2 -36 17 -36 12 0 12 37 -1 45 -6 3 -13 -1 -16
-9z"/>
<path d="M23886 3463 c-11 -11 -6 -23 9 -23 8 0 15 4 15 9 0 13 -16 22 -24 14z"/>
<path d="M36657 3464 c-13 -13 -7 -24 14 -24 11 0 19 5 17 12 -5 14 -22 21
-31 12z"/>
<path d="M8380 3366 c0 -79 3 -96 15 -96 12 0 15 15 17 70 1 39 2 80 2 92 1
14 -6 24 -16 26 -16 3 -18 -6 -18 -92z"/>
<path d="M22800 3450 c0 -5 7 -10 16 -10 8 0 12 5 9 10 -3 6 -10 10 -16 10 -5
0 -9 -4 -9 -10z"/>
<path d="M18765 3401 c-7 -12 12 -24 25 -16 11 7 4 25 -10 25 -5 0 -11 -4 -15
-9z"/>
<path d="M7900 3390 c0 -5 12 -10 28 -10 21 0 24 2 12 10 -20 13 -40 13 -40 0z"/>
<path d="M8720 3374 c0 -14 4 -23 10 -19 6 3 10 15 10 26 0 10 -4 19 -10 19
-5 0 -10 -12 -10 -26z"/>
<path d="M22930 3335 c0 -8 5 -15 10 -15 6 0 10 7 10 15 0 8 -4 15 -10 15 -5
0 -10 -7 -10 -15z"/>
<path d="M35156 3342 c-3 -6 -1 -14 5 -17 15 -10 25 3 12 16 -7 7 -13 7 -17 1z"/>
<path d="M38306 3341 c-8 -12 3 -41 15 -41 12 0 12 37 0 45 -5 3 -12 1 -15 -4z"/>
<path d="M10020 3330 c0 -5 5 -10 10 -10 6 0 10 5 10 10 0 6 -4 10 -10 10 -5
0 -10 -4 -10 -10z"/>
<path d="M12894 3324 c3 -9 6 -18 6 -20 0 -3 5 -2 10 1 16 10 12 35 -6 35 -11
0 -14 -5 -10 -16z"/>
<path d="M27025 3330 c-3 -5 3 -10 15 -10 12 0 18 5 15 10 -3 6 -10 10 -15 10
-5 0 -12 -4 -15 -10z"/>
<path d="M30860 3330 c0 -5 5 -10 10 -10 6 0 10 5 10 10 0 6 -4 10 -10 10 -5
0 -10 -4 -10 -10z"/>
<path d="M33660 3330 c0 -5 5 -10 10 -10 6 0 10 5 10 10 0 6 -4 10 -10 10 -5
0 -10 -4 -10 -10z"/>
<path d="M36050 3281 c0 -22 5 -43 10 -46 6 -4 10 12 10 39 0 25 -4 46 -10 46
-5 0 -10 -18 -10 -39z"/>
<path d="M13230 3285 c0 -8 4 -15 10 -15 5 0 7 7 4 15 -4 8 -8 15 -10 15 -2 0
-4 -7 -4 -15z"/>
<path d="M26562 3288 c-16 -16 -15 -28 3 -28 8 0 15 9 15 20 0 23 -2 24 -18 8z"/>
<path d="M9825 3280 c-3 -5 -1 -10 4 -10 6 0 11 5 11 10 0 6 -2 10 -4 10 -3 0
-8 -4 -11 -10z"/>
<path d="M27850 3280 c0 -5 5 -10 11 -10 5 0 7 5 4 10 -3 6 -8 10 -11 10 -2 0
-4 -4 -4 -10z"/>
<path d="M6882 3250 c0 -19 2 -27 5 -17 2 9 2 25 0 35 -3 9 -5 1 -5 -18z"/>
<path d="M11180 3265 c0 -8 5 -15 10 -15 6 0 10 7 10 15 0 8 -4 15 -10 15 -5
0 -10 -7 -10 -15z"/>
<path d="M21770 3270 c0 -5 9 -10 21 -10 11 0 17 5 14 10 -3 6 -13 10 -21 10
-8 0 -14 -4 -14 -10z"/>
<path d="M28396 3272 c-3 -6 3 -12 15 -15 12 -3 19 -1 16 6 -5 15 -24 20 -31
9z"/>
<path d="M19177 3250 c-16 -42 -17 -88 -2 -100 22 -18 28 6 17 66 -5 27 -12
42 -15 34z"/>
<path d="M20875 3239 c-7 -23 7 -45 23 -35 11 6 4 56 -8 56 -5 0 -12 -9 -15
-21z"/>
<path d="M33111 3065 c0 -115 4 -182 9 -170 5 11 9 88 9 170 0 83 -4 159 -9
170 -5 12 -9 -55 -9 -170z"/>
<path d="M34067 3233 c-10 -10 -8 -81 2 -87 18 -12 29 56 13 82 -5 7 -11 9
-15 5z"/>
<path d="M10156 3222 c-3 -6 -1 -14 5 -17 15 -10 25 3 12 16 -7 7 -13 7 -17 1z"/>
<path d="M28800 3211 c0 -14 5 -19 15 -14 17 6 15 25 -3 31 -7 2 -12 -5 -12
-17z"/>
<path d="M29091 3214 c0 -11 3 -14 6 -6 3 7 2 16 -1 19 -3 4 -6 -2 -5 -13z"/>
<path d="M14736 3195 c-4 -14 -3 -33 2 -41 8 -14 10 -14 21 0 15 17 11 58 -5
63 -7 2 -15 -8 -18 -22z"/>
<path d="M30241 3193 c0 -25 1 -26 9 -8 12 27 12 35 0 35 -5 0 -10 -12 -9 -27z"/>
<path d="M31325 3210 c-16 -7 -17 -9 -3 -9 9 -1 20 4 23 9 7 11 7 11 -20 0z"/>
<path d="M14184 3196 c-8 -22 -1 -59 14 -64 8 -2 12 8 12 32 0 37 -16 57 -26
32z"/>
<path d="M24782 3156 c1 -10 8 -17 13 -17 15 1 12 24 -3 29 -9 3 -13 -2 -10
-12z"/>
<path d="M29114 3138 c-9 -18 -32 -49 -51 -70 -35 -36 -35 -36 -22 -80 8 -24
21 -44 31 -46 25 -5 85 54 108 105 25 56 25 58 -1 94 -27 38 -45 37 -65 -3z"/>
<path d="M31695 3160 c-15 -7 -10 -9 23 -9 26 -1 41 3 37 9 -7 12 -32 12 -60
0z"/>
<path d="M38082 3158 c-5 -7 -13 -24 -17 -38 -3 -14 -23 -39 -43 -57 l-37 -32
23 -45 c12 -25 25 -46 29 -46 26 0 76 45 92 83 10 23 26 49 35 56 16 13 14 17
-21 53 -41 42 -46 44 -61 26z"/>
<path d="M6270 3141 c0 -11 5 -23 10 -26 6 -4 10 5 10 19 0 14 -4 26 -10 26
-5 0 -10 -9 -10 -19z"/>
<path d="M6876 3136 c-4 -17 -3 -33 3 -39 17 -17 25 1 14 35 l-9 33 -8 -29z"/>
<path d="M10235 3150 c3 -5 16 -10 28 -10 18 0 19 2 7 10 -20 13 -43 13 -35 0z"/>
<path d="M12800 3150 c-12 -8 -9 -10 13 -10 15 0 27 5 27 10 0 13 -20 13 -40
0z"/>
<path d="M14449 3088 c-48 -58 -51 -64 -45 -102 4 -22 9 -42 11 -44 12 -13 63
15 97 51 46 51 66 104 49 136 -21 39 -55 27 -112 -41z"/>
<path d="M25053 3085 c0 -38 2 -53 4 -32 2 20 2 52 0 70 -2 17 -4 1 -4 -38z"/>
<path d="M30240 3118 c0 -16 5 -28 10 -28 13 0 13 20 0 40 -8 12 -10 9 -10
-12z"/>
<path d="M3810 3050 c0 -52 4 -79 10 -75 6 3 10 37 10 75 0 38 -4 72 -10 75
-6 4 -10 -23 -10 -75z"/>
<path d="M12280 2978 c0 -99 4 -158 10 -158 12 0 13 14 10 165 -3 182 -19 176
-20 -7z"/>
<path d="M9336 3058 c-8 -78 3 -216 15 -196 11 16 10 216 0 243 -5 13 -10 0
-15 -47z"/>
<path d="M22527 3104 c-8 -8 3 -34 14 -34 5 0 9 9 9 20 0 19 -11 26 -23 14z"/>
<path d="M27112 3080 c0 -14 2 -19 5 -12 2 6 2 18 0 25 -3 6 -5 1 -5 -13z"/>
<path d="M22047 3054 c-10 -11 -9 -82 3 -89 5 -3 12 5 16 19 7 28 -7 81 -19
70z"/>
<path d="M15415 3039 c-10 -15 3 -25 16 -12 7 7 7 13 1 17 -6 3 -14 1 -17 -5z"/>
<path d="M19164 3036 c-3 -8 0 -34 7 -57 l12 -44 9 43 c10 46 6 72 -12 72 -6
0 -13 -6 -16 -14z"/>
<path d="M31085 3040 c-13 -5 27 -9 108 -9 83 -1 126 3 122 9 -8 12 -202 12
-230 0z"/>
<path d="M38310 3040 c0 -5 5 -10 10 -10 6 0 10 5 10 10 0 6 -4 10 -10 10 -5
0 -10 -4 -10 -10z"/>
<path d="M18976 3025 c4 -8 10 -12 15 -9 14 8 10 24 -6 24 -9 0 -12 -6 -9 -15z"/>
<path d="M5726 3003 c-12 -12 -6 -33 9 -33 8 0 15 6 15 14 0 17 -14 28 -24 19z"/>
<path d="M16380 2981 c0 -5 5 -13 10 -16 6 -3 10 -2 10 4 0 5 -4 13 -10 16 -5
3 -10 2 -10 -4z"/>
<path d="M26615 2980 c3 -5 13 -10 21 -10 8 0 14 5 14 10 0 6 -9 10 -21 10
-11 0 -17 -4 -14 -10z"/>
<path d="M30307 2984 c-8 -8 1 -24 14 -24 5 0 9 7 9 15 0 15 -12 20 -23 9z"/>
<path d="M13227 2924 c-8 -8 3 -34 14 -34 5 0 9 9 9 20 0 19 -11 26 -23 14z"/>
<path d="M22590 2920 c0 -5 7 -10 16 -10 8 0 12 5 9 10 -3 6 -10 10 -16 10 -5
0 -9 -4 -9 -10z"/>
<path d="M26000 2914 c0 -17 22 -14 28 4 2 7 -3 12 -12 12 -9 0 -16 -7 -16
-16z"/>
<path d="M35090 2914 c0 -8 5 -12 10 -9 6 3 10 10 10 16 0 5 -4 9 -10 9 -5 0
-10 -7 -10 -16z"/>
<path d="M7630 2900 c0 -5 -12 -16 -27 -24 -16 -8 -22 -15 -15 -16 7 0 24 7
37 16 25 17 33 34 15 34 -5 0 -10 -4 -10 -10z"/>
<path d="M3870 2857 c0 -7 6 -21 13 -31 12 -17 14 -17 20 -2 4 9 4 23 1 31 -7
18 -34 20 -34 2z"/>
<path d="M18077 2864 c-8 -8 1 -24 13 -24 4 0 10 7 14 15 5 15 -14 21 -27 9z"/>
<path d="M22660 2860 c0 -5 5 -10 10 -10 6 0 10 5 10 10 0 6 -4 10 -10 10 -5
0 -10 -4 -10 -10z"/>
<path d="M23950 2860 c0 -5 7 -10 15 -10 8 0 15 5 15 10 0 6 -7 10 -15 10 -8
0 -15 -4 -15 -10z"/>
<path d="M36792 2859 c2 -6 8 -10 13 -10 5 0 11 4 13 10 2 6 -4 11 -13 11 -9
0 -15 -5 -13 -11z"/>
<path d="M35707 2844 c-4 -4 -7 -18 -7 -31 0 -28 23 -27 28 1 4 20 -11 40 -21
30z"/>
<path d="M11790 2800 c0 -5 7 -10 15 -10 8 0 15 5 15 10 0 6 -7 10 -15 10 -8
0 -15 -4 -15 -10z"/>
<path d="M13160 2784 c0 -14 4 -23 10 -19 6 3 10 15 10 26 0 10 -4 19 -10 19
-5 0 -10 -12 -10 -26z"/>
<path d="M33310 2795 c0 -8 7 -15 15 -15 8 0 15 7 15 15 0 8 -7 15 -15 15 -8
0 -15 -7 -15 -15z"/>
<path d="M36252 2799 c2 -6 8 -10 13 -10 5 0 11 4 13 10 2 6 -4 11 -13 11 -9
0 -15 -5 -13 -11z"/>
<path d="M27780 2778 c0 -19 2 -20 10 -8 13 19 13 30 0 30 -5 0 -10 -10 -10
-22z"/>
<path d="M20810 2763 c0 -13 5 -23 10 -23 13 0 13 11 0 30 -8 12 -10 11 -10
-7z"/>
<path d="M7222 2741 c4 -13 18 -16 19 -4 0 4 -5 9 -11 12 -7 2 -11 -2 -8 -8z"/>
<path d="M14455 2741 c-3 -5 -1 -12 5 -16 12 -7 30 2 30 16 0 12 -27 12 -35 0z"/>
<path d="M18690 2740 c0 -5 7 -10 15 -10 8 0 15 5 15 10 0 6 -7 10 -15 10 -8
0 -15 -4 -15 -10z"/>
<path d="M29085 2740 c-3 -5 -1 -10 4 -10 6 0 11 5 11 10 0 6 -2 10 -4 10 -3
0 -8 -4 -11 -10z"/>
<path d="M34480 2735 c12 -15 30 -12 30 6 0 5 -10 9 -21 9 -18 0 -19 -2 -9
-15z"/>
<path d="M22927 2696 c-4 -10 -1 -19 9 -23 21 -8 26 1 11 22 -13 16 -14 16
-20 1z"/>
<path d="M33040 2686 c0 -9 5 -16 10 -16 6 0 10 4 10 9 0 6 -4 13 -10 16 -5 3
-10 -1 -10 -9z"/>
<path d="M35020 2655 c0 -25 5 -45 10 -45 6 0 10 20 10 45 0 25 -4 45 -10 45
-5 0 -10 -20 -10 -45z"/>
<path d="M30240 2674 c0 -8 5 -12 10 -9 6 3 10 10 10 16 0 5 -4 9 -10 9 -5 0
-10 -7 -10 -16z"/>
<path d="M30955 2680 c-7 -11 39 -25 54 -15 6 3 11 10 11 16 0 12 -57 12 -65
-1z"/>
<path d="M31125 2681 c-3 -5 -1 -12 5 -16 12 -7 30 2 30 16 0 12 -27 12 -35 0z"/>
<path d="M7040 2630 c-11 -7 -5 -10 23 -10 23 0 36 4 32 10 -8 13 -35 13 -55
0z"/>
<path d="M11726 2632 c-3 -6 -1 -14 5 -17 15 -10 25 3 12 16 -7 7 -13 7 -17 1z"/>
<path d="M13230 2626 c0 -9 5 -16 10 -16 6 0 10 4 10 9 0 6 -4 13 -10 16 -5 3
-10 -1 -10 -9z"/>
<path d="M27846 2633 c-11 -11 -6 -23 9 -23 8 0 15 4 15 9 0 13 -16 22 -24 14z"/>
<path d="M14400 2621 c0 -6 5 -13 10 -16 6 -3 10 1 10 9 0 9 -4 16 -10 16 -5
0 -10 -4 -10 -9z"/>
<path d="M29012 2618 c6 -18 28 -21 28 -4 0 9 -7 16 -16 16 -9 0 -14 -5 -12
-12z"/>
<path d="M34000 2620 c0 -5 5 -10 11 -10 5 0 7 5 4 10 -3 6 -8 10 -11 10 -2 0
-4 -4 -4 -10z"/>
<path d="M28478 2613 c6 -2 18 -2 25 0 6 3 1 5 -13 5 -14 0 -19 -2 -12 -5z"/>
<path d="M31337 2603 c-11 -10 -8 -81 3 -88 6 -4 10 13 10 44 0 52 -1 56 -13
44z"/>
<path d="M6410 2556 c0 -9 5 -16 10 -16 6 0 10 4 10 9 0 6 -4 13 -10 16 -5 3
-10 -1 -10 -9z"/>
<path d="M15280 2555 c0 -8 2 -15 4 -15 2 0 6 7 10 15 3 8 1 15 -4 15 -6 0
-10 -7 -10 -15z"/>
<path d="M26960 2560 c0 -5 7 -10 16 -10 8 0 12 5 9 10 -3 6 -10 10 -16 10 -5
0 -9 -4 -9 -10z"/>
<path d="M37545 2560 c3 -5 10 -10 16 -10 5 0 9 5 9 10 0 6 -7 10 -16 10 -8 0
-12 -4 -9 -10z"/>
<path d="M33596 2534 c-10 -26 -7 -142 4 -149 6 -4 10 25 10 79 0 86 -3 100
-14 70z"/>
<path d="M3324 2447 c-3 -9 -3 -25 1 -34 6 -16 8 -16 18 5 7 16 7 26 -1 34 -8
8 -13 7 -18 -5z"/>
<path d="M5864 2438 c33 -6 52 -6 60 2 7 7 -8 10 -49 9 l-60 -1 49 -10z"/>
<path d="M12280 2441 c0 -6 5 -13 10 -16 6 -3 10 1 10 9 0 9 -4 16 -10 16 -5
0 -10 -4 -10 -9z"/>
<path d="M15915 2440 c28 -12 63 -12 70 0 4 6 -12 10 -42 9 -36 0 -43 -3 -28
-9z"/>
<path d="M16514 2434 c3 -9 6 -18 6 -20 0 -3 5 -2 10 1 16 10 12 35 -6 35 -11
0 -14 -5 -10 -16z"/>
<path d="M35658 2437 c39 -7 56 -7 65 2 8 8 -5 11 -53 10 l-65 -2 53 -10z"/>
<path d="M28666 2404 c-7 -18 0 -34 15 -34 12 0 12 37 0 44 -5 3 -12 -1 -15
-10z"/>
<path d="M5990 2390 c0 -5 5 -10 11 -10 5 0 7 5 4 10 -3 6 -8 10 -11 10 -2 0
-4 -4 -4 -10z"/>
<path d="M7352 2388 c6 -18 28 -21 28 -4 0 9 -7 16 -16 16 -9 0 -14 -5 -12
-12z"/>
<path d="M9824 2389 c-3 -6 -1 -16 5 -22 8 -8 11 -5 11 11 0 24 -5 28 -16 11z"/>
<path d="M15697 2393 c-12 -11 -8 -23 8 -23 8 0 15 7 15 15 0 16 -12 20 -23 8z"/>
<path d="M38100 2385 c0 -8 5 -15 10 -15 6 0 10 7 10 15 0 8 -4 15 -10 15 -5
0 -10 -7 -10 -15z"/>
<path d="M36260 2375 c0 -8 5 -15 10 -15 6 0 10 7 10 15 0 8 -4 15 -10 15 -5
0 -10 -7 -10 -15z"/>
<path d="M8110 2334 c0 -17 22 -14 28 4 2 7 -3 12 -12 12 -9 0 -16 -7 -16 -16z"/>
<path d="M8457 2336 c-3 -8 -2 -18 3 -21 13 -8 24 15 12 27 -6 6 -11 4 -15 -6z"/>
<path d="M3875 2330 c3 -5 11 -10 16 -10 6 0 7 5 4 10 -3 6 -11 10 -16 10 -6
0 -7 -4 -4 -10z"/>
<path d="M4350 2330 c0 -5 11 -10 25 -10 14 0 25 5 25 10 0 6 -11 10 -25 10
-14 0 -25 -4 -25 -10z"/>
<path d="M7840 2330 c0 -5 5 -10 10 -10 6 0 10 5 10 10 0 6 -4 10 -10 10 -5 0
-10 -4 -10 -10z"/>
<path d="M21475 2330 c-4 -6 18 -10 60 -10 42 0 64 4 60 10 -3 6 -30 10 -60
10 -30 0 -57 -4 -60 -10z"/>
<path d="M37685 2298 c-9 -22 4 -43 17 -30 7 7 7 16 0 29 -10 17 -11 17 -17 1z"/>
<path d="M5591 2260 c0 -33 1 -34 11 -12 8 17 8 26 0 34 -9 9 -12 4 -11 -22z"/>
<path d="M11730 2270 c0 -5 5 -10 11 -10 5 0 7 5 4 10 -3 6 -8 10 -11 10 -2 0
-4 -4 -4 -10z"/>
<path d="M16580 2270 c0 -5 7 -10 16 -10 8 0 12 5 9 10 -3 6 -10 10 -16 10 -5
0 -9 -4 -9 -10z"/>
<path d="M24020 2270 c0 -5 5 -10 10 -10 6 0 10 5 10 10 0 6 -4 10 -10 10 -5
0 -10 -4 -10 -10z"/>
<path d="M38230 2270 c0 -5 7 -10 15 -10 8 0 15 5 15 10 0 6 -7 10 -15 10 -8
0 -15 -4 -15 -10z"/>
<path d="M12482 2204 c4 -21 22 -23 26 -1 2 10 -3 17 -13 17 -10 0 -15 -6 -13
-16z"/>
<path d="M13165 2210 c-3 -5 -1 -10 4 -10 6 0 11 5 11 10 0 6 -2 10 -4 10 -3
0 -8 -4 -11 -10z"/>
<path d="M16650 2210 c0 -5 5 -10 11 -10 5 0 7 5 4 10 -3 6 -8 10 -11 10 -2 0
-4 -4 -4 -10z"/>
<path d="M16990 2210 c0 -5 5 -10 10 -10 6 0 10 5 10 10 0 6 -4 10 -10 10 -5
0 -10 -4 -10 -10z"/>
<path d="M17605 2210 c3 -5 10 -10 16 -10 5 0 9 5 9 10 0 6 -7 10 -16 10 -8 0
-12 -4 -9 -10z"/>
<path d="M23480 2205 c12 -15 30 -12 30 6 0 5 -10 9 -21 9 -18 0 -19 -2 -9
-15z"/>
<path d="M37615 2209 c-4 -6 -5 -13 -2 -16 7 -7 27 6 27 18 0 12 -17 12 -25
-2z"/>
<path d="M38372 2199 c1 -13 8 -23 13 -21 15 3 12 35 -3 40 -9 3 -13 -3 -10
-19z"/>
<path d="M9737 2164 c-14 -14 -7 -35 11 -32 9 2 17 10 17 17 0 16 -18 25 -28
15z"/>
<path d="M4900 2145 c0 -9 6 -12 15 -9 8 4 15 10 15 15 0 5 -7 9 -15 9 -8 0
-15 -7 -15 -15z"/>
<path d="M5914 2134 c-4 -17 -1 -31 10 -42 15 -15 16 -15 16 3 0 11 3 30 6 43
5 16 2 22 -10 22 -8 0 -19 -12 -22 -26z"/>
<path d="M34480 2145 c0 -8 5 -15 10 -15 6 0 10 7 10 15 0 8 -4 15 -10 15 -5
0 -10 -7 -10 -15z"/>
<path d="M37482 2149 c2 -6 8 -10 13 -10 5 0 11 4 13 10 2 6 -4 11 -13 11 -9
0 -15 -5 -13 -11z"/>
<path d="M5656 2135 c4 -8 10 -12 15 -9 14 8 10 24 -6 24 -9 0 -12 -6 -9 -15z"/>
<path d="M21363 2134 c-3 -8 0 -21 6 -27 10 -9 16 -8 26 7 8 10 12 23 9 27 -9
15 -34 10 -41 -7z"/>
<path d="M9130 2096 c0 -9 5 -16 10 -16 6 0 10 4 10 9 0 6 -4 13 -10 16 -5 3
-10 -1 -10 -9z"/>
<path d="M12486 2095 c-3 -9 0 -15 9 -15 16 0 20 16 6 24 -5 3 -11 -1 -15 -9z"/>
<path d="M18970 2090 c0 -5 5 -10 10 -10 6 0 10 5 10 10 0 6 -4 10 -10 10 -5
0 -10 -4 -10 -10z"/>
<path d="M21540 2090 c0 -5 9 -10 20 -10 11 0 20 5 20 10 0 6 -9 10 -20 10
-11 0 -20 -4 -20 -10z"/>
<path d="M25862 2088 c6 -18 28 -21 28 -4 0 9 -7 16 -16 16 -9 0 -14 -5 -12
-12z"/>
<path d="M34677 2094 c-8 -8 1 -24 14 -24 5 0 9 7 9 15 0 15 -12 20 -23 9z"/>
<path d="M5656 2044 c-9 -22 -8 -24 9 -24 8 0 15 6 15 14 0 22 -17 28 -24 10z"/>
<path d="M14050 2036 c0 -9 5 -16 10 -16 6 0 10 4 10 9 0 6 -4 13 -10 16 -5 3
-10 -1 -10 -9z"/>
<path d="M27710 2035 c0 -8 7 -15 15 -15 9 0 12 6 9 15 -4 8 -10 15 -15 15 -5
0 -9 -7 -9 -15z"/>
<path d="M28670 2036 c0 -9 5 -16 10 -16 6 0 10 4 10 9 0 6 -4 13 -10 16 -5 3
-10 -1 -10 -9z"/>
<path d="M19660 2030 c0 -5 5 -10 10 -10 6 0 10 5 10 10 0 6 -4 10 -10 10 -5
0 -10 -4 -10 -10z"/>
<path d="M30446 2031 c-4 -5 -2 -12 3 -15 5 -4 12 -2 15 3 4 5 2 12 -3 15 -5
4 -12 2 -15 -3z"/>
<path d="M4767 1993 c-13 -12 -7 -33 8 -33 8 0 15 9 15 20 0 20 -11 26 -23 13z"/>
<path d="M16716 1984 c-8 -21 -1 -28 19 -20 9 3 15 11 13 18 -7 19 -25 20 -32
2z"/>
<path d="M4896 1983 c-11 -11 -6 -23 9 -23 8 0 15 4 15 9 0 13 -16 22 -24 14z"/>
<path d="M15696 1974 c-4 -10 -1 -14 6 -12 15 5 23 28 10 28 -5 0 -13 -7 -16
-16z"/>
<path d="M23556 1981 c-4 -7 -5 -15 -2 -18 9 -9 19 4 14 18 -4 11 -6 11 -12 0z"/>
<path d="M37417 1983 c-12 -11 -8 -23 8 -23 8 0 15 7 15 15 0 16 -12 20 -23 8z"/>
<path d="M16030 1970 c0 -5 5 -10 10 -10 6 0 10 5 10 10 0 6 -4 10 -10 10 -5
0 -10 -4 -10 -10z"/>
<path d="M3392 1909 c2 -6 8 -10 13 -10 5 0 11 4 13 10 2 6 -4 11 -13 11 -9 0
-15 -5 -13 -11z"/>
<path d="M18152 1908 c3 -7 23 -14 46 -16 33 -2 42 0 42 12 0 12 -11 16 -46
16 -32 0 -44 -4 -42 -12z"/>
<path d="M24025 1910 c-3 -6 0 -13 8 -16 24 -9 80 0 85 14 5 15 -84 17 -93 2z"/>
<path d="M31728 1783 c6 -2 18 -2 25 0 6 3 1 5 -13 5 -14 0 -19 -2 -12 -5z"/>
</g>
</svg>
